<svg width="250" height="250" viewBox="0 0 250 250" fill="none" xmlns="http://www.w3.org/2000/svg">
<path d="M125 14C63.6925 14 14 63.6925 14 125C14 186.308 63.6925 236 125 236C186.308 236 236 186.308 236 125C236 63.6925 186.308 14 125 14ZM37.8517 126.154L123.846 212.148C76.6218 211.536 38.4644 173.378 37.8517 126.154ZM144.509 209.973L40.0273 105.491C48.8895 66.7472 83.5659 37.8339 125 37.8339C153.958 37.8339 179.621 51.962 195.472 73.7002L183.404 84.3474C170.546 65.9125 149.18 53.8446 125 53.8446C94.213 53.8446 67.9904 73.3983 58.0803 100.766L149.234 191.911C171.371 183.892 188.394 165.209 194.095 142.067H156.32V125H212.175C212.166 166.434 183.253 201.11 144.509 209.973Z" fill="#744C9E"/>
</svg>
