<svg width="250" height="250" viewBox="0 0 250 250" fill="none" xmlns="http://www.w3.org/2000/svg">
<rect width="250" height="250" fill="#EA2D2F"/>
<path d="M97.9625 180.368C97.9625 180.368 90.1161 185.111 103.547 186.716C119.817 188.645 128.133 188.368 146.063 184.841C146.063 184.841 150.777 187.913 157.361 190.575C117.166 208.482 66.3915 189.537 97.9625 180.368ZM93.0509 157C93.0509 157 84.2504 163.772 97.6908 165.217C115.072 167.08 128.798 167.233 152.549 162.479C152.549 162.479 155.834 165.941 161 167.834C112.401 182.606 58.2717 168.999 93.0509 157" fill="white"/>
<path d="M134.123 120.309C144.07 131.726 131.51 142 131.51 142C131.51 142 156.765 129.002 145.167 112.725C134.334 97.5451 126.026 90.0037 171 64C171.001 63.9994 100.406 81.5768 134.123 120.309" fill="white"/>
<path d="M187.112 197.015C187.112 197.015 192.905 201.773 180.732 205.453C157.583 212.441 84.3858 214.551 64.0518 205.731C56.7423 202.562 70.4497 198.164 74.7616 197.242C79.2584 196.27 81.8282 196.451 81.8282 196.451C73.6992 190.744 29.286 207.656 59.2684 212.5C141.035 225.714 208.321 206.549 187.112 197.015V197.015ZM101.424 134.972C101.424 134.972 64.1915 143.785 88.2393 146.986C98.393 148.34 118.634 148.034 137.488 146.46C152.896 145.164 168.369 142.411 168.369 142.411C168.369 142.411 162.936 144.73 159.005 147.404C121.196 157.314 48.1551 152.703 69.1825 142.567C86.9655 134.001 101.424 134.972 101.424 134.972V134.972ZM168.216 172.178C206.651 152.274 188.88 133.147 176.476 135.724C173.436 136.355 172.08 136.901 172.08 136.901C172.08 136.901 173.209 135.139 175.364 134.376C199.903 125.779 218.774 159.733 167.443 173.181C167.443 173.181 168.038 172.652 168.216 172.178Z" fill="white"/>
<path d="M145.416 22C145.416 22 167.179 43.2191 124.775 75.8496C90.771 102.024 117.021 116.948 124.761 134C104.913 116.544 90.3464 101.179 100.119 86.8774C114.461 65.8844 154.197 55.7062 145.416 22" fill="white"/>
<path d="M104.998 226.37C141.936 228.681 198.657 225.087 200 208C200 208 197.418 214.477 169.473 219.622C137.947 225.422 99.0625 224.745 76 221.028C76.0011 221.027 80.7217 224.848 104.998 226.37" fill="white"/>
</svg>
