<svg height="255" preserveAspectRatio="xMidYMid" viewBox="0 0 256 255" width="256" xmlns="http://www.w3.org/2000/svg"><path d="m150.735739 0c-1.851139 0-3.570052.39668612-5.156759.92557229 3.371712 2.24781535 5.222861 5.22289318 6.148461 8.5946162.066297.46277949.198338.79335791.264533 1.25612201.066297.3966862.132144.793358.132144 1.190042.264574 5.8178758-1.520615 6.5451107-2.776728 9.9829567-1.917272 4.4295476-1.38839 9.1896337.925559 13.0241628.198348.4627672.46279.9916667.793374 1.4544595-2.512307-16.7264396 11.437446-19.2387114 14.015795-24.461579.198338-4.56176498-3.570052-7.60293619-6.545098-9.71853511-2.84283-1.71891689-5.421251-2.24781739-7.801281-2.24781739zm21.023743 3.76840811c-.264554 1.52058152-.066195 1.12390768-.132113 1.91726456-.066195.5288872-.066195 1.19002766-.132124 1.71891485-.132123.52890152-.264574 1.05778872-.46281 1.58671377-.132113.5288872-.330554 1.05778771-.528882 1.58667391-.264574.528926-.46279.9916933-.727241 1.5205927-.198328.2645587-.330554.5288872-.528892.7933569-.132124.1983354-.264554.3966718-.396667.5950072-.330554.4628051-.661138.9255723-.991682 1.322243-.396697.3966862-.727251.8594524-1.190062 1.190042v.0661947c-.396666.3305641-.793343.7272359-1.256112 1.0577877-1.38837 1.0577867-2.975046 1.8511425-4.429539 2.8428348-.462759.3305518-.925579.5950225-1.322236.9916923-.462779.3305518-.859466.6611036-1.256123 1.0577876-.46281.3966718-.793364.7933559-1.190051 1.2561477-.330554.3966851-.72722.8594543-.991661 1.3222584-.330585.4627662-.661129.92556-.9256 1.3883385-.264544.5288861-.46278.9916912-.727231 1.5205794-.198328.5288862-.396687.9916933-.528892 1.5205785-.198339.5950215-.330565 1.123922-.46279 1.6528347-.066195.2645567-.066195.5949949-.132123.8594513-.066297.2645577-.066297.5288872-.132114.7933569 0 .5288862-.066194 1.1239077-.066194 1.6527949 0 .3966841 0 .7933548.066194 1.1900399 0 .5288882.066195 1.0577765.198329 1.6527959.066194.5288862.198318 1.0577867.330584 1.5867128.198339.5288861.330564 1.0577866.528882 1.5866738.132144.3305907.330554.6611415.46281.9255723l-15.205866-5.8839999c-2.5784-.7272358-5.090646-1.3883384-7.669046-1.9833599-1.388348-.3305508-2.776697-.6611262-4.165066-.9916913-3.966759-.7933436-7.99958-1.3883395-12.032451-1.7850103-.132113 0-.198329-.0662049-.330554-.0662049-3.966769-.3966707-7.867374-.5950071-11.834113-.5950071-2.908964 0-5.8179278.1321141-8.6607595.3305518-4.0328594.2645577-8.0657249.7933558-12.0985567 1.4544584-.9916943.1321275-1.9833866.3305897-2.9750819.5289271-2.0494759.3966452-4.0328318.8594503-5.9500943 1.3222421-.9916923.2645576-1.9833866.5289005-2.9750799.7933323-.9916615.3966697-1.9172308.8594769-2.8428327 1.2561476-.7272318.3305518-1.4544605.6611149-2.1816933.9916923-.1321223.0662049-.2645536.0662049-.3305539.1321274-.6611384.3305508-1.2561538.5949816-1.8511395.9255703-.1983394.0662049-.3305866.1321151-.4628009.1983374-.7272308.3305528-1.4544595.7272236-2.049478 1.0577867-.4627999.1983364-.9255692.4627928-1.3222451.6611414-.1983405.1321142-.462803.2645454-.5950174.3305519-.5950143.3305518-1.1900307.6611015-1.718924.9916922-.5950164.3305508-1.1239097.6611026-1.5867097.9916544-.4627672.3305897-.9255662.5950205-1.3222461.9255713-.0662356.0662049-.1321223.0662049-.1983395.1321285-.3966759.2645566-.8594452.5950061-1.256121.9255958 0 0-.0662254.0661946-.1321234.1321253-.3305538.2645577-.6611404.5288893-.9916933.7933201-.1321212.0662049-.2645546.1983354-.3966769.2645566-.3305538.2645598-.6611077.5950215-.9916626.8594769-.0662253.1321264-.1983374.1983364-.2645546.2645587-.3966769.3966718-.7933548.7272226-1.1900317 1.1239077-.0662254 0-.0662254.0662049-.1321223.1321141-.3966769.3305641-.7933528.7272369-1.1900297 1.123921-.0662254.0662049-.0662254.1321131-.1321233.1321131-.3305539.3305528-.6611078.6611414-.9916933 1.0577866-.1321203.1321264-.3305539.2645598-.4627683.3966718-.3305538.3966851-.7272318.7933569-1.1239076 1.190042-.0662254.1321151-.1983385.1983364-.2645557.3305508-.5288943.5289261-.9916943 1.0578133-1.5205866 1.5867127-.0662254.0662049-.1321213.1321111-.1983374.1983365-1.0578164 1.1239066-2.1817261 2.2478143-3.3717271 3.2394994-1.1900297 1.0577846-2.4461559 2.0494769-3.7023086 2.9089333-1.3222482.9255999-2.5783713 1.718923-3.9667415 2.5122768-1.3222482.7272103-2.7106173 1.388359-4.1650789 1.9833846-1.3883712.5950051-2.8428317 1.1239179-4.2972963 1.5866769-2.7767394.5950051-5.6195732 1.718923-8.065728 1.9172615-.5288923 0-1.1239087.1321335-1.652802.1983282-.5950133.1321233-1.1239067.2645638-1.652799.3966974-.5288933.198318-1.0578163.3966667-1.5867107.5949949-.5288933.1983384-1.05778563.4627999-1.58667897.7272512-.46279995.3305436-.99169124.5950051-1.45449324.925559-.46277131.3305539-.92557127.7272205-1.3222492 1.1239077-.46276824.3305845-.9255682.793364-1.32224613 1.1900205-.39667793.4628204-.79335381.8594871-1.12390808 1.3222461-.33055396.5288923-.72723159.9917025-.99169391 1.520605-.33055386.4628-.66110761.9916821-.92556993 1.5205539-.26455512.5950461-.52889211 1.1239282-.72723149 1.7189538-.19833835.5288923-.3966768 1.1238974-.59501525 1.718923-.13212149.5288821-.26455492 1.0577846-.33055366 1.5866565 0 .0662969-.0662141.1321438-.0662141.1983486-.13212251.5950461-.13212251 1.3884101-.19833928 1.7850973-.0662141.4627693-.13212056.8594257-.13212056 1.3222359 0 .2645536 0 .5949847.0662141.8594359.06621411.4628102.13212036.8594769.26455502 1.2561845.13212148.3966155.26455512.7933026.46276937 1.1899898v.0661947c.19833835.3967076.46280057.793364.72723158 1.1900409.26455501.3966769.52892341.7933538.85947727 1.190041.33055376.3305538.72723169.7272 1.12390809 1.0577744.39667782.3966769.79335596.7272307 1.2561242 1.0577846 1.58670865 1.3883794 1.98338556 1.8511793 4.03286757 2.9089537.33055079.1983487.66113841.3305744 1.05781532.5289128.06622536 0 .1321223.0661947.19833738.0661947 0 .1321131 0 .1983487.0662254.3305948.0662151.5289025.1983374 1.0577744.3305539 1.5866871.1321212.5950154.3305855 1.1239282.528924 1.5866971.1983384.396687.3305539.793344.5288933 1.190041.0662152.132134.1321234.264554.1983385.330554.2645546.528882.5288923.991713.7933231 1.454462.3305856.462779.6611384.925559.9916913 1.388379.3305559.396657.7272338.859446 1.1239097 1.256113.3966779.396687.7933558.727251 1.2561568 1.123897 0 0 .0662254.066297.1321203.066297.3966789.330585.7933538.661149 1.1900327.925559.4627693.330575.9255693.595005 1.4544605.859477.462801.264554.9916944.528893 1.5205867.727241.3966779.198339.8594461.330575 1.3222481.46279.0662254.066297.1321213.066297.2645557.132144.2645546.066297.5949826.132103.8594451.198318-.1983374 3.570061-.2645556 6.941784.2645567 8.131835.5949846 1.322236 3.5039394-2.710615 6.4128963-7.338471-.3966759 4.561753-.6611395 9.91682 0 11.503558.7272297 1.65277 4.6939711-3.503989 8.1318182-9.189651 46.8736626-10.842389 89.6484288 21.552656 94.1440488 67.302409-.859466-7.140143-9.65241-11.106871-13.68524-10.115169-1.983395 4.892297-5.355118 11.172964-10.776318 15.0736.462779-4.363426.264533-8.859046-.661118-13.222482-1.454492 6.082349-4.297333 11.768041-8.1979793 16.660338-6.2806737.462769-12.5613627-2.57841-15.8669944-7.140133-.2645557-.198359-.3305549-.595026-.5288934-.859467-.1983405-.46283-.3966759-.925569-.5288933-1.388379-.1983374-.462769-.3305528-.925569-.3966759-1.388339-.0662253-.46281-.0662253-.925589-.0662253-1.454471 0-.330585 0-.661129 0-.991672.0662253-.462831.1983384-.92561.3305548-1.3884.1321213-.462769.2645536-.925569.4628-1.388359.2645556-.462759.4627693-.925559.7933548-1.388328 1.1239077-3.173436 1.1239077-5.751795-.9255692-7.272369-.3966779-.264554-.7933548-.46281-1.2561548-.661149-.2645577-.066195-.5950174-.198338-.8594462-.264543-.1983394-.066195-.3305538-.132144-.5288933-.198349-.462801-.132123-.925602-.264564-1.3883712-.330554-.4628-.132113-.9255692-.198338-1.3883692-.198338-.4627703-.066297-.9916953-.132124-1.4544636-.132124-.3305528 0-.6611384.066195-.9916933.066195-.5288913 0-.9916912.066297-1.4544625.198339-.4628.066297-.9255682.132113-1.3883682.264533-.4627713.132133-.9255723.264563-1.3883722.46283-.4627683.198329-.8594472.396667-1.3222451.595005-.3966462.198349-.7933252.46277-1.2561241.661108-15.4041955 10.049077-6.2145589 33.585087 4.2972963 40.394666-3.9667435.727231-7.9995763 1.586728-9.123486 2.446154-.0662254.066194-.1321213.132133-.1321213.132133 2.8428328 1.718903 5.817883 3.173385 8.9251445 4.429508 4.231205 1.388369 8.7268367 2.644502 10.7102223 3.173415v.066195c5.487327 1.123918 11.0407792 1.520595 16.6603268 1.190041 29.2878043-2.049487 53.2866043-24.329384 57.6500293-53.683271.132123.595026.264554 1.123898.396677 1.718934.198349 1.189989.462769 2.446133.594985 3.702266v.066297c.132123.595015.198338 1.190021.264553 1.718913v.264564c.066297.595005.132134 1.19003.132134 1.718913.066194.727241.132123 1.454461.132123 2.181733v1.057784c0 .330585.066195.727221.066195 1.057805 0 .396688-.066195.793334-.066195 1.190011v.925569c0 .46281-.066297.859467-.066297 1.322256 0 .264533 0 .528903-.066195.859467 0 .46281-.066194.925559-.066194 1.454461-.066297.198339-.066297.396677-.066297.595026-.066195.528903-.132124.991692-.198349 1.520595 0 .198349 0 .396667-.066195.595025-.066297.661098-.198328 1.256134-.264522 1.917231v.066297.066195c-.132124.595005-.264574 1.256123-.396708 1.851128v.198349c-.132103.594995-.264554 1.190031-.396656 1.785015 0 .066297-.066195.198349-.066195.264533-.132144.595036-.264574 1.190041-.462769 1.785087v.198318c-.198339.661098-.396688 1.256123-.528923 1.851139-.066195.066194-.066195.132123-.066195.132123-.198349.661139-.396667 1.322246-.594985 1.983364-.264553.661139-.462789 1.256144-.727231 1.917272-.264543.661128-.46281 1.322256-.727251 1.917251-.264564.661149-.528913 1.256164-.793343 1.917262h-.066297c-.264574.595005-.528934 1.256153-.859508 1.851179-.066195.198308-.132103.330554-.198318.462749-.066195.066297-.066195.132123-.132123.198359-4.297292 8.660697-10.644113 16.26362-18.577569 22.213753-.528892.330554-1.057805.727241-1.586687 1.123898-.132134.132133-.330585.198358-.4628.330553-.4628.330564-.92558.661108-1.454451.991703l.198328.396677h.066194c.925559-.132113 1.851139-.264554 2.776718-.396677h.066195c1.718933-.264554 3.437856-.595015 5.15679-.925569.462759-.066297.991692-.198329 1.454451-.330585.330554-.066297.595015-.132113.925569-.198338.4628-.066297.92558-.198339 1.38839-.264544.396656-.132123.793343-.198359 1.19001-.330564 6.611231-1.586718 13.024154-3.768441 19.172564-6.3468-10.511836 14.346369-24.593795 25.916051-41.055774 33.518974 7.602944-.528903 15.205856-1.785026 22.544328-3.900615 26.643302-7.867415 49.055383-25.783846 62.476193-49.914871-2.710605 15.271979-8.792943 29.816697-17.784215 42.510286 6.412893-4.23123 12.296892-9.123538 17.652-14.676974 14.809169-15.470287 24.527712-35.10564 27.833302-56.195537 2.247836 10.445764 2.908964 21.222123 1.917272 31.866194 47.733147-66.575178 3.966738-135.5965095-14.346379-153.7774127-.066297-.1321162-.132124-.1983364-.132124-.3305528-.066297.0661946-.066297.0661946-.066297.1321274 0-.0662049 0-.0662049-.066194-.1321274 0 .7933558-.066195 1.5866749-.132124 2.3800317-.198348 1.5205846-.396666 2.9750554-.661138 4.4295476-.330544 1.4544615-.727231 2.9089026-1.123918 4.363405-.462769 1.3883385-.991641 2.8428103-1.586677 4.2311897-.595015 1.3222257-1.256144 2.7105948-1.983374 4.0328614-.727241 1.2561436-1.520585 2.5783795-2.380031 3.7683897-.859467 1.256164-1.785046 2.4461641-2.710636 3.5700513-.991702 1.1900512-2.049467 2.2478562-3.107282 3.3056511-.661108.5950154-1.256113 1.1239077-1.917272 1.6527795-.528882.4628102-.991661.8594974-1.520584 1.3222462-1.19001.9255794-2.380031 1.785046-3.702267 2.5784101-1.256143.7933333-2.578359 1.5866872-3.900615 2.2478256-1.388369.6611179-2.776738 1.256123-4.165087 1.8511486-1.388369.5288719-2.842831.9916718-4.297344 1.388359-1.454451.3966564-2.975025.7272307-4.429507.9916718-1.520564.2645536-3.041159.3966667-4.495631.5289128-1.057805.0661946-2.11559.1321335-3.173405.1321335-1.520595 0-3.041149-.1321335-4.495631-.2645536-1.520574-.1321233-3.041179-.330605-4.495641-.6611588-1.520584-.2645536-2.975076-.6611384-4.429548-1.1238873h-.066195c1.454472-.1321233 2.908954-.264574 4.363446-.5289127 1.520554-.2645536 2.975026-.5949949 4.429518-.9917025 1.454462-.3966667 2.908933-.8594667 4.297292-1.3883487 1.454462-.5289026 2.842841-1.1900001 4.165098-1.8511589 1.388348-.6611385 2.644492-1.3883488 3.966728-2.1817026 1.256123-.8594564 2.512266-1.7189025 3.702287-2.6445025 1.190031-.9255589 2.313918-1.9172308 3.371754-2.9750358 1.123907-.9917128 2.115579-2.1156102 3.107271-3.2395281.991662-1.1899898 1.917252-2.3800205 2.776718-3.5700513.132134-.1983486.264564-.4627692.396698-.6611179.661097-1.0578051 1.322205-2.1156 1.91721-3.1734153.727251-1.3222461 1.38839-2.6445025 1.983384-4.0328307.595026-1.3883692 1.123929-2.7767486 1.586718-4.2311999.46277-1.3883794.793334-2.8428307 1.123908-4.2972902.264564-1.5205928.528882-2.975087.661118-4.4295465.132123-1.5205785.264543-3.0411722.264543-4.4956297 0-1.0578133-.066297-2.1155999-.132103-3.1733876-.132133-1.5205805-.330574-2.9750768-.528902-4.4295373-.264564-1.5205918-.595005-2.9750492-.991703-4.4295476-.462759-1.3883395-.925569-2.8428246-1.454451-4.231162-.528933-1.3883774-1.19002-2.7767404-1.851179-4.0989978-.727231-1.3222441-1.454452-2.6444882-2.247795-3.9006112-.859457-1.2561231-1.718944-2.4461508-2.644513-3.6361917-.991661-1.1239087-1.983354-2.2478154-3.041179-3.371723-.528882-.5288893-1.123908-1.1239098-1.718913-1.6527959-2.975046-2.3139487-6.082338-4.49567063-9.1896-6.47902755-.462779-.26454744-.859456-.46279177-1.322256-.66114045-2.181723-1.38834053-4.2312-2.11560097-6.280667-2.77670459z" fill="#e0234e"/></svg>