<!DOCTYPE svg PUBLIC "-//W3C//DTD SVG 1.1//EN" "http://www.w3.org/Graphics/SVG/1.1/DTD/svg11.dtd">
<!-- Uploaded to: SVG Repo, www.svgrepo.com, Transformed by: SVG Repo Mixer Tools -->
<svg width="256px" height="256px" viewBox="-0.75 -0.75 16.50 16.50" fill="none" xmlns="http://www.w3.org/2000/svg" stroke="#cccccc" stroke-width="0.00015000000000000001">
<g id="SVGRepo_bgCarrier" stroke-width="0"/>
<g id="SVGRepo_tracerCarrier" stroke-linecap="round" stroke-linejoin="round"/>
<g id="SVGRepo_iconCarrier"> <path d="M4.5 4.5L4.90534 4.20725C4.77836 4.03144 4.55252 3.95753 4.34617 4.02425C4.13981 4.09098 4 4.28313 4 4.5H4.5ZM7.5 14C3.91015 14 1 11.0899 1 7.5H0C0 11.6421 3.35786 15 7.5 15V14ZM14 7.5C14 11.0899 11.0899 14 7.5 14V15C11.6421 15 15 11.6421 15 7.5H14ZM7.5 1C11.0899 1 14 3.91015 14 7.5H15C15 3.35786 11.6421 0 7.5 0V1ZM7.5 0C3.35786 0 0 3.35786 0 7.5H1C1 3.91015 3.91015 1 7.5 1V0ZM5 12V4.5H4V12H5ZM4.09466 4.79275L10.5947 13.7927L11.4053 13.2073L4.90534 4.20725L4.09466 4.79275ZM10 4V10H11V4H10Z" fill="#cecece"/> </g>
</svg>