<svg width="64" height="64" viewBox="0 0 64 64" fill="none" xmlns="http://www.w3.org/2000/svg">
<path d="M25.0493 4.88856C32.34 3.01883 40.3978 4.10835 46.8276 8.07669C54.9256 12.9195 60.2124 22.0801 60.3468 31.5098C60.6428 41.0336 55.679 50.4769 47.7021 55.6558C38.8239 61.6283 26.5424 61.8572 17.4758 56.1805C8.23447 50.6651 2.84017 39.5405 4.22591 28.8597C5.3421 17.5735 14.0592 7.61937 25.0493 4.88878V4.88856Z" fill="#010101"/>
<path d="M23.9327 9.5024C37.7074 3.987 54.603 14.1701 56.0287 28.9403C58.2484 42.2306 47.2178 55.7363 33.7524 56.1265C20.9463 57.4044 8.57067 46.5485 8.20757 33.6889C7.25249 23.2771 14.113 12.9461 23.9327 9.5024V9.5024Z" fill="white"/>
<path d="M25.3182 30.7161C31.4927 25.6716 37.5325 20.4522 43.8415 15.5557C40.5322 20.6406 37.129 25.6581 33.8197 30.7428C30.9814 30.7564 28.1432 30.7564 25.3182 30.7159V30.7161ZM30.5376 33.5274C33.3893 33.5274 36.2277 33.5274 39.066 33.5678C32.8513 38.5853 26.8384 43.8449 20.5159 48.7281C23.8251 43.6431 27.2284 38.6124 30.5376 33.5274Z" fill="#010101"/>
</svg>
