<svg width="250" height="250" viewBox="0 0 250 250" fill="none" xmlns="http://www.w3.org/2000/svg">
<path d="M233.082 48.2934L130.717 231.338C128.604 235.118 123.174 235.14 121.029 231.379L16.635 48.3111C14.2979 44.2127 17.8024 39.2485 22.4466 40.0786L124.92 58.3952C125.574 58.5121 126.243 58.5109 126.897 58.3918L227.228 40.1049C231.856 39.2613 235.378 44.187 233.082 48.2934Z" fill="url(#paint0_linear_2776_31647)"/>
<path d="M173.736 16.0537L97.9831 30.8971C96.738 31.1411 95.8161 32.1962 95.741 33.4625L91.0812 112.163C90.9716 114.017 92.674 115.456 94.4832 115.038L115.574 110.171C117.547 109.716 119.33 111.454 118.925 113.438L112.659 144.122C112.237 146.187 114.176 147.953 116.192 147.34L129.219 143.383C131.238 142.769 133.179 144.54 132.752 146.607L122.794 194.804C122.171 197.819 126.181 199.463 127.853 196.878L128.97 195.152L190.698 71.9639C191.731 69.9012 189.949 67.5494 187.683 67.9865L165.974 72.1764C163.934 72.5697 162.198 70.6698 162.774 68.6739L176.943 19.5544C177.52 17.5551 175.778 15.6536 173.736 16.0537Z" fill="url(#paint1_linear_2776_31647)"/>
<defs>
<linearGradient id="paint0_linear_2776_31647" x1="14.0861" y1="33.5369" x2="141.486" y2="206.557" gradientUnits="userSpaceOnUse">
<stop stop-color="#41D1FF"/>
<stop offset="1" stop-color="#BD34FE"/>
</linearGradient>
<linearGradient id="paint1_linear_2776_31647" x1="119.04" y1="20.0837" x2="142.086" y2="178.177" gradientUnits="userSpaceOnUse">
<stop stop-color="#FFEA83"/>
<stop offset="0.0833333" stop-color="#FFDD35"/>
<stop offset="1" stop-color="#FFA800"/>
</linearGradient>
</defs>
</svg>
