<svg width="16" height="16" viewBox="0 0 16 16" fill="none" xmlns="http://www.w3.org/2000/svg">
<path fill-rule="evenodd" clip-rule="evenodd" d="M0 0H16V16H0V0ZM7.4 11.1265H6.813V10.7231H7.4V11.1265ZM8.4 11.1265H7.8V10.7231H8.4V11.1265ZM2.8 4.21641L5.4 2.92589V13.1179L2.8 12.2387V4.21641ZM5.8 10.7231V5.47869H6.4V5.07528H5.8V2.60175C5.8 2.53196 5.7642 2.46721 5.7056 2.4305C5.647 2.39359 5.5736 2.38996 5.5118 2.42082L2.5118 3.90982C2.4434 3.9437 2.4 4.0141 2.4 4.09075V12.3839C2.4 12.4704 2.4548 12.5475 2.5364 12.5751L5.5364 13.5895C5.5572 13.5966 5.5788 13.6 5.6 13.6C5.6414 13.6 5.6824 13.5871 5.7168 13.5621C5.769 13.5242 5.8 13.4632 5.8 13.3983V11.1265H6.4V10.7231H5.8ZM9.4 11.1265H8.8V10.7231H9.4V11.1265ZM9.4 5.47869H8.813V5.07528H9.4V5.47869ZM8.4 5.47869H7.813V5.07528H8.4V5.47869ZM7.4 5.47869H6.813V5.07528H7.4V5.47869ZM10.6 2.92589L13.2 4.21641V12.2387L10.6 13.1179V2.92589ZM13.4636 12.5751C13.5452 12.5475 13.6 12.4704 13.6 12.3839V4.09075C13.6 4.0141 13.5566 3.9437 13.4882 3.90982L10.4882 2.42082C10.4262 2.38996 10.353 2.39359 10.2944 2.4305C10.2358 2.46721 10.2 2.53196 10.2 2.60175V5.07528H9.813V5.47869H10.2V10.7231H9.813V11.1265H10.2V13.3983C10.2 13.4632 10.231 13.5242 10.2832 13.5621C10.3176 13.5871 10.3586 13.6 10.4 13.6C10.4212 13.6 10.4428 13.5966 10.4636 13.5895L13.4636 12.5751ZM8.2132 6.61652L8.5868 6.76134L7.5868 9.38353L7.2132 9.2387L8.2132 6.61652ZM9.9414 7.75656C10.0196 7.83523 10.0196 7.96291 9.9414 8.04178L9.1414 8.8486L8.8586 8.56339L9.5172 7.89917L8.8586 7.23495L9.1414 6.94974L9.9414 7.75656ZM6.0586 8.04178L6.8586 8.8486L7.1414 8.56339L6.4828 7.89917L7.1414 7.23495L6.8586 6.94974L6.0586 7.75656C5.9804 7.83523 5.9804 7.96291 6.0586 8.04178Z" fill="#E8E8E8"/>
</svg>
