<svg width="16" height="16" viewBox="0 0 16 16" fill="none" xmlns="http://www.w3.org/2000/svg">
<path fill-rule="evenodd" clip-rule="evenodd" d="M0 0H16V16H0V0ZM5.97376 7.16158H3.39271V6.76508H5.97376V7.16158ZM12.5558 10.3265L12.2751 10.0462L10.9411 11.3782L10.3397 10.7779L10.059 11.0583L10.8007 11.7987C10.8394 11.8374 10.8903 11.8568 10.9411 11.8568C10.9917 11.8568 11.0426 11.8374 11.0815 11.7987L12.5558 10.3265ZM12.7494 12.1417C12.9918 11.8582 13.1435 11.5115 13.1888 11.1388C13.2345 10.7623 13.1679 10.3852 12.9962 10.0486C12.7099 9.4873 12.1669 9.10685 11.5443 9.03092C11.4674 9.0216 11.3904 9.01684 11.314 9.01684C11.0159 9.01684 10.7233 9.08762 10.4561 9.22541C9.89835 9.51327 9.52013 10.0577 9.44448 10.6818C9.36447 11.3422 9.62734 11.9831 10.1479 12.3965C10.4189 12.6116 10.7441 12.7476 11.0892 12.7896C11.444 12.8328 11.8002 12.7751 12.1208 12.6231C12.3599 12.5097 12.5773 12.3431 12.7494 12.1417ZM11.5923 8.63739C12.3464 8.72918 13.0036 9.18952 13.35 9.86874C13.5577 10.2758 13.6383 10.7313 13.5831 11.1863C13.5285 11.6368 13.3447 12.0561 13.0514 12.3991C12.8435 12.6425 12.5805 12.8439 12.2912 12.9811C11.986 13.1259 11.6543 13.2 11.3183 13.2C11.226 13.2 11.1335 13.1944 11.041 13.1831C10.6234 13.1322 10.2291 12.9674 9.90093 12.7069C9.27155 12.2071 8.95369 11.4322 9.05018 10.6342C9.14171 9.87964 9.59915 9.22124 10.2738 8.87311C10.6806 8.66336 11.1363 8.58168 11.5923 8.63739ZM6.17231 8.35111H5.37814V7.9546H6.17231V8.35111ZM4.98105 8.35111H3.39271V7.9546H4.98105V8.35111ZM12.1016 3.19651H3.22117C2.99146 3.19651 2.79709 3.43263 2.79709 3.71217V5.17905H6.96648V4.18778C6.96648 4.07834 7.05522 3.98952 7.16502 3.98952H11.7315C11.8413 3.98952 11.93 4.07834 11.93 4.18778V5.17905H12.5257V3.71217C12.5257 3.42787 12.3355 3.19651 12.1016 3.19651ZM10.2873 5.94787C10.2873 5.49229 9.91225 5.12155 9.45123 5.12155C8.99002 5.12155 8.61517 5.49229 8.61517 5.94787C8.61517 6.24803 8.78016 6.5244 9.04601 6.66952C9.29598 6.80493 9.60133 6.80671 9.85467 6.66932C10.1215 6.52459 10.2873 6.24823 10.2873 5.94787ZM2.79709 5.57555V9.42168C2.79709 9.70122 2.99146 9.93714 3.22117 9.93714H8.55482V10.3336H3.22117C2.7683 10.3336 2.4 9.92465 2.4 9.42168V3.71217C2.4 3.2092 2.7683 2.8 3.22117 2.8H12.1016C12.5545 2.8 12.9228 3.2092 12.9228 3.71217L12.9229 8.54936H12.5259L12.5257 5.57555H11.93V7.55809H11.533V4.38603H7.36356V7.91455C7.58553 7.3985 8.00009 6.97998 8.53079 6.75675C8.33364 6.53669 8.21809 6.2514 8.21809 5.94787C8.21809 5.27361 8.77123 4.72504 9.45123 4.72504C10.131 4.72504 10.6844 5.27361 10.6844 5.94787C10.6844 6.25259 10.5676 6.53887 10.3691 6.75893C10.7926 6.93895 11.1577 7.24862 11.3983 7.64532L11.0586 7.85071C10.8242 7.46352 10.4457 7.17467 10.0133 7.04977C9.65693 7.21551 9.2378 7.21392 8.88678 7.04997C8.12716 7.26884 7.59963 7.9542 7.58236 8.74761H9.24058V9.14412H7.16502C7.05522 9.14412 6.96648 9.0555 6.96648 8.94587V5.57555H2.79709Z" fill="url(#paint0_linear_2685_32148)"/>
<defs>
<linearGradient id="paint0_linear_2685_32148" x1="0" y1="0" x2="17.347" y2="1.62554" gradientUnits="userSpaceOnUse">
<stop stop-color="#00828B"/>
<stop offset="1" stop-color="#65BFAD"/>
</linearGradient>
</defs>
</svg>
