<svg width="16" height="16" viewBox="0 0 16 16" fill="none" xmlns="http://www.w3.org/2000/svg">
<path fill-rule="evenodd" clip-rule="evenodd" d="M0 0H16V16H0V0ZM8.49415 12.2248C8.49415 11.9788 8.29294 11.7794 8.04516 11.7794C7.79738 11.7794 7.59617 11.9788 7.59617 12.2248C7.59617 12.4708 7.79738 12.6702 8.04516 12.6702C8.29294 12.6702 8.49415 12.4708 8.49415 12.2248ZM3.81129 8.6206C4.05907 8.6206 4.26028 8.4212 4.26028 8.1752C4.26028 7.9294 4.05907 7.7298 3.81129 7.7298C3.56351 7.7298 3.3623 7.9294 3.3623 8.1752C3.3623 8.4212 3.56351 8.6206 3.81129 8.6206ZM11.355 12.3196C11.355 12.8132 11.7595 13.2 12.2758 13.2C12.7923 13.2 13.1968 12.8132 13.1968 12.3196C13.1968 11.816 12.7837 11.4062 12.2758 11.4062C11.7681 11.4062 11.355 11.816 11.355 12.3196ZM12.2758 7.2866C11.7681 7.2866 11.355 7.6964 11.355 8.2C11.355 8.7036 11.7681 9.1134 12.2758 9.1134C12.7837 9.1134 13.1968 8.7036 13.1968 8.2C13.1968 7.6964 12.7837 7.2866 12.2758 7.2866ZM7.1244 8.2C7.1244 8.7036 7.5373 9.1134 8.04516 9.1134C8.55303 9.1134 8.96593 8.7036 8.96593 8.2C8.96593 7.6964 8.55303 7.2866 8.04516 7.2866C7.5373 7.2866 7.1244 7.6964 7.1244 8.2ZM8.04516 13.2C8.61996 13.2 9.05323 12.7702 9.05323 12.2C9.05323 11.6298 8.61996 11.2 8.04516 11.2C7.47036 11.2 7.0371 11.6298 7.0371 12.2C7.0371 12.7702 7.47036 13.2 8.04516 13.2ZM8.04516 3C7.4119 3 6.83548 3.572 6.83548 4.2C6.83548 4.828 7.4119 5.4 8.04516 5.4C8.67843 5.4 9.25484 4.828 9.25484 4.2C9.25484 3.572 8.67843 3 8.04516 3ZM2.80323 8.2C2.80323 8.7702 3.23649 9.2 3.81129 9.2C4.38609 9.2 4.81936 8.7702 4.81936 8.2C4.81936 7.6212 4.36714 7.1504 3.81129 7.1504C3.25544 7.1504 2.80323 7.6212 2.80323 8.2ZM3.80806 13.2C4.3246 13.2 4.72903 12.8102 4.72903 12.3128C4.72903 11.809 4.31593 11.3994 3.80806 11.3994C3.3004 11.3994 2.8873 11.809 2.8873 12.3128C2.8873 12.8102 3.29173 13.2 3.80806 13.2ZM12.4774 9.4964V11.023C13.1119 11.1198 13.6 11.6636 13.6 12.3196C13.6 13.0376 13.0183 13.6 12.2758 13.6C11.5335 13.6 10.9518 13.0376 10.9518 12.3196C10.9518 11.6636 11.4399 11.1198 12.0742 11.023V9.4964C11.5056 9.4098 11.0565 8.964 10.969 8.4H9.35202C9.26472 8.964 8.81532 9.4098 8.24677 9.4964V10.8152C8.93911 10.9098 9.45645 11.4832 9.45645 12.2C9.45645 12.985 8.83649 13.6 8.04516 13.6C7.25383 13.6 6.63387 12.985 6.63387 12.2C6.63387 11.4832 7.15121 10.9098 7.84355 10.8152V9.4964C7.275 9.4098 6.82561 8.964 6.73831 8.4H5.20726C5.12097 9.0214 4.63911 9.4992 4.0129 9.5848V11.0168C4.64597 11.1148 5.13226 11.6578 5.13226 12.3128C5.13226 13.0346 4.55061 13.6 3.80806 13.6C3.06573 13.6 2.48407 13.0346 2.48407 12.3128C2.48407 11.6556 2.97379 11.1112 3.60968 11.0158V9.5848C2.91734 9.4902 2.4 8.9168 2.4 8.2C2.4 7.4008 3.03327 6.7504 3.81129 6.7504C4.52319 6.7504 5.1121 7.2954 5.20766 8H6.73831C6.82561 7.436 7.275 6.9902 7.84355 6.9036V5.7846C7.07157 5.6794 6.43226 4.9848 6.43226 4.2C6.43226 3.3476 7.18589 2.6 8.04516 2.6C8.90444 2.6 9.65806 3.3476 9.65806 4.2C9.65806 4.9848 9.01875 5.6794 8.24677 5.7846V6.9036C8.81532 6.9902 9.26472 7.436 9.35202 8H10.969C11.0663 7.3706 11.6145 6.8866 12.2758 6.8866C13.0058 6.8866 13.6 7.4758 13.6 8.2C13.6 8.856 13.1119 9.3998 12.4774 9.4964Z" fill="#E8E8E8"/>
</svg>
