<svg width="16" height="16" viewBox="0 0 16 16" fill="none" xmlns="http://www.w3.org/2000/svg">
<path fill-rule="evenodd" clip-rule="evenodd" d="M0 0H16V16H0V0ZM10.4244 9.8246C10.7552 9.8246 11.0244 10.0938 11.0244 10.4246C11.0244 10.7554 10.7552 11.0246 10.4244 11.0246C10.0936 11.0246 9.8244 10.7554 9.8244 10.4246C9.8244 10.0938 10.0936 9.8246 10.4244 9.8246ZM10.4244 11.4246C10.9758 11.4246 11.4244 10.976 11.4244 10.4246C11.4244 9.8732 10.9758 9.4246 10.4244 9.4246C9.873 9.4246 9.4244 9.8732 9.4244 10.4246C9.4244 10.976 9.873 11.4246 10.4244 11.4246ZM5.4784 6.9384C5.8092 6.9384 6.0784 7.2076 6.0784 7.5384C6.0784 7.8692 5.8092 8.1384 5.4784 8.1384C5.1474 8.1384 4.8784 7.8692 4.8784 7.5384C4.8784 7.2076 5.1474 6.9384 5.4784 6.9384ZM5.4784 8.5384C6.0296 8.5384 6.4784 8.0898 6.4784 7.5384C6.4784 6.987 6.0296 6.5384 5.4784 6.5384C4.927 6.5384 4.4784 6.987 4.4784 7.5384C4.4784 8.0898 4.927 8.5384 5.4784 8.5384ZM8.546 5.0014C8.2152 5.0014 7.946 4.7322 7.946 4.4014C7.946 4.0704 8.2152 3.8014 8.546 3.8014C8.877 3.8014 9.146 4.0704 9.146 4.4014C9.146 4.7322 8.877 5.0014 8.546 5.0014ZM8.546 3.4014C7.9948 3.4014 7.546 3.85 7.546 4.4014C7.546 4.9528 7.9948 5.4014 8.546 5.4014C9.0974 5.4014 9.546 4.9528 9.546 4.4014C9.546 3.85 9.0974 3.4014 8.546 3.4014ZM10.6024 3.5018C12.2056 4.4296 13.2 6.1454 13.2 8C13.2 9.532 12.541 10.955 11.384 11.9456C11.323 11.8024 11.2592 11.66 11.1896 11.5208L10.8318 11.6998C10.9136 11.8636 10.9876 12.0318 11.0566 12.201C10.77 12.4106 10.4646 12.5902 10.1418 12.7354C10.2664 12.4506 10.371 12.1652 10.4622 11.8512L10.078 11.7398C9.9532 12.1704 9.8038 12.5454 9.6024 12.9428C9.0892 13.112 8.5512 13.2 8 13.2C7.1578 13.2 6.3546 13.0028 5.6108 12.6166C5.2616 11.739 5.09 10.9308 5.09 10.1492C5.09 9.79849 5.15036 9.51014 5.22019 9.17657L5.2206 9.1746L5.22392 9.15866C5.23966 9.08316 5.25571 9.00622 5.2714 8.927L4.8788 8.8496C4.8624 8.933 4.8456 9.0134 4.829 9.0924L4.82866 9.09404C4.75738 9.43483 4.69 9.75703 4.69 10.1492C4.69 10.838 4.8148 11.5432 5.0654 12.2894C3.6566 11.3272 2.8 9.7316 2.8 8C2.8 7.96507 2.8016 7.9296 2.8032 7.89414C2.804 7.8764 2.8048 7.85867 2.8054 7.841C3.2374 7.746 3.6326 7.6972 4.0926 7.6858L4.0828 7.286C3.6438 7.2968 3.2484 7.3422 2.8366 7.4256C3.0612 5.3916 4.4756 3.6596 6.4394 3.042C6.828 3.2456 7.124 3.429 7.4096 3.6454L7.6514 3.3268C7.4488 3.1732 7.2402 3.036 7.005 2.8984C7.3298 2.835 7.6622 2.8 8 2.8C8.7096 2.8 9.4092 2.9474 10.0532 3.2252C9.8972 3.2704 9.7352 3.3232 9.5542 3.3884L9.6902 3.7646C10.037 3.6392 10.315 3.5598 10.6024 3.5018ZM11.4242 12.4298C12.8068 11.3598 13.6 9.7454 13.6 8C13.6 5.9768 12.5026 4.105 10.7368 3.1158C9.9078 2.6476 8.9616 2.4 8 2.4C7.451 2.4 6.9124 2.4786 6.4002 2.6332C4.1512 3.3024 2.548 5.325 2.4118 7.6618C2.4036 7.7584 2.4 7.8628 2.4 8C2.4 10.0694 3.5334 11.9612 5.3576 12.9372C6.1664 13.3708 7.08 13.6 8 13.6C8.6226 13.6 9.2312 13.4986 9.8072 13.2988C9.9816 13.24 10.1512 13.17 10.3178 13.0944C10.7104 12.9166 11.0818 12.6958 11.4242 12.4298ZM7.2 4.7912L7.4628 5.0926C7.0446 5.4576 6.7166 5.8488 6.331 6.443L5.9954 6.2252C6.4028 5.5978 6.7516 5.1824 7.2 4.7912ZM6.725 8.0636L6.855 7.6854C7.83 8.0202 8.6778 8.5516 9.523 9.3578L9.2468 9.6472C8.445 8.8822 7.6436 8.379 6.725 8.0636ZM10.785 9.0676C10.7022 7.7342 10.2796 6.478 9.5292 5.3336L9.195 5.553C9.9066 6.6384 10.3072 7.8292 10.3858 9.0924L10.785 9.0676Z" fill="url(#paint0_linear_2685_32150)"/>
<defs>
<linearGradient id="paint0_linear_2685_32150" x1="0" y1="0" x2="17.347" y2="1.62554" gradientUnits="userSpaceOnUse">
<stop stop-color="#00828B"/>
<stop offset="1" stop-color="#65BFAD"/>
</linearGradient>
</defs>
</svg>
