<svg width="16" height="16" viewBox="0 0 16 16" fill="none" xmlns="http://www.w3.org/2000/svg">
<path fill-rule="evenodd" clip-rule="evenodd" d="M0 0H16V16H0V0ZM11.6 7.99264H10.6V7.59203H11.6V7.99264ZM6.6 10.3963H5.6V9.99571H6.6V10.3963ZM5 10.3963H3.6V9.99571H5V10.3963ZM6 9.19448H3.6V8.79387H6V9.19448ZM5.4 6.7908H3.6V6.39019H5.4V6.7908ZM10.2 7.99264H3.6V7.59203H10.2V7.99264ZM2.8 12.3994H7.4V8.59356H7.8V12.5997C7.8 12.7103 7.7104 12.8 7.6 12.8H2.6C2.4894 12.8 2.4 12.7103 2.4 12.5997V5.38865C2.4 5.27809 2.4894 5.18835 2.6 5.18835H7.6C7.7104 5.18835 7.8 5.27809 7.8 5.38865V7.19141H7.4V5.58896H2.8V12.3994ZM11.8184 9.19368C12.4346 9.13639 13.6 8.6861 13.6 7.39172C13.6 6.34231 12.8762 5.79768 12.195 5.62582C12.1454 5.06416 11.8378 4.64171 11.3514 4.47986C10.9714 4.35347 10.5686 4.41957 10.27 4.64071C10.132 4.3703 9.9548 4.16138 9.7408 3.94685C8.9942 3.20511 7.981 3.001 7.03 3.40141C6.5168 3.61774 6.074 4.09487 5.8156 4.71002L6.1844 4.86545C6.4024 4.34566 6.7674 3.94665 7.185 3.77058C7.981 3.43566 8.8318 3.60773 9.4586 4.23068C9.7092 4.48167 9.8894 4.70721 10.0136 5.05534C10.0384 5.12505 10.0994 5.17513 10.1722 5.18614C10.2458 5.19736 10.3182 5.16712 10.362 5.10782C10.5502 4.85544 10.906 4.75388 11.2252 4.86005C11.3962 4.91693 11.7908 5.11804 11.8018 5.76163C11.8014 5.76523 11.801 5.76884 11.8008 5.77264C11.792 5.8764 11.8642 5.96934 11.9668 5.98677C12.1726 6.02162 13.2 6.25278 13.2 7.39172C13.2 8.63181 11.862 8.78669 11.8013 8.79372L11.8 8.79387H8.6V9.19448L11.8184 9.19368Z" fill="#E8E8E8"/>
</svg>
