<svg width="16" height="16" viewBox="0 0 16 16" fill="none" xmlns="http://www.w3.org/2000/svg">
<path fill-rule="evenodd" clip-rule="evenodd" d="M0 0H16V16H0V0ZM10.4 10.3354V11.3046L11 11.0646V10.0954L10.4 10.3354ZM10 10.3354L9.4 10.0954V11.0646L10 11.3046V10.3354ZM8.2 11.7354V12.7046L8.8 12.4646V11.4954L8.2 11.7354ZM7.8 11.7354L7.2 11.4954V12.4646L7.8 12.7046V11.7354ZM6 10.3354V11.3046L6.6 11.0646V10.0954L6 10.3354ZM5.6 10.3354L5 10.0954V11.0646L5.6 11.3046V10.3354ZM6.2616 9.8L5.8 9.6154L5.3384 9.8L5.8 9.9846L6.2616 9.8ZM8.4616 11.2L8 11.0154L7.5384 11.2L8 11.3846L8.4616 11.2ZM10.6616 9.8L10.2 9.6154L9.7384 9.8L10.2 9.9846L10.6616 9.8ZM10.2742 9.2142L11.2742 9.6142C11.3502 9.6448 11.4 9.7182 11.4 9.8V11.2C11.4 11.2818 11.3502 11.3552 11.2742 11.3858L10.2742 11.7858C10.2504 11.7952 10.2252 11.8 10.2 11.8C10.1748 11.8 10.1496 11.7952 10.1258 11.7858L9.2 11.4154V12.6C9.2 12.6818 9.1502 12.7552 9.0742 12.7858L8.0742 13.1858C8.0504 13.1952 8.0252 13.2 8 13.2C7.9748 13.2 7.9496 13.1952 7.9258 13.1858L6.9258 12.7858C6.8498 12.7552 6.8 12.6818 6.8 12.6V11.4154L5.8742 11.7858C5.8504 11.7952 5.8252 11.8 5.8 11.8C5.7748 11.8 5.7496 11.7952 5.7258 11.7858L4.7258 11.3858C4.6498 11.3552 4.6 11.2818 4.6 11.2V9.8C4.6 9.7182 4.6498 9.6448 4.7258 9.6142L5.7258 9.2142C5.7734 9.1954 5.8266 9.1954 5.8742 9.2142L6.8742 9.6142C6.9502 9.6448 7 9.7182 7 9.8V10.9846L7.9258 10.6142C7.9734 10.5954 8.0266 10.5954 8.0742 10.6142L9 10.9846V9.8C9 9.7182 9.0498 9.6448 9.1258 9.6142L10.1258 9.2142C10.1734 9.1954 10.2266 9.1954 10.2742 9.2142ZM8 8.9876C10.4238 8.9876 13 8.3566 13 7.1876C13 6.6294 12.381 6.138 11.257 5.8038L11.143 6.1872C12.0418 6.4544 12.6 6.8378 12.6 7.1876C12.6 7.8498 10.711 8.5876 8 8.5876C5.289 8.5876 3.4 7.8498 3.4 7.1876C3.4 6.8378 3.9582 6.4544 4.857 6.1872L4.743 5.8038C3.619 6.138 3 6.6294 3 7.1876C3 8.3566 5.5762 8.9876 8 8.9876ZM10.0428 4.2L8 3.4142L5.9572 4.2L8 4.9858L10.0428 4.2ZM8.2 7.7602C9.1056 7.7338 9.7388 7.5372 10.116 7.3684C10.2888 7.292 10.4 7.1198 10.4 6.9296V4.4914L8.2 5.3374V7.7602ZM5.6 4.4914V6.9296C5.6 7.1198 5.7112 7.292 5.8832 7.368C6.2612 7.5372 6.8944 7.7338 7.8 7.7602V5.3374L5.6 4.4914ZM8 8.1654C6.9138 8.1654 6.161 7.9304 5.7208 7.7334C5.4046 7.5936 5.2 7.278 5.2 6.9296V4.2C5.2 4.1172 5.251 4.043 5.3282 4.0132L7.9282 3.0132C7.9746 2.9956 8.0254 2.9956 8.0718 3.0132L10.6718 4.0132C10.749 4.043 10.8 4.1172 10.8 4.2V6.9296C10.8 7.278 10.5954 7.5936 10.2786 7.7338C9.839 7.9304 9.0862 8.1654 8 8.1654Z" fill="url(#paint0_linear_2685_32152)"/>
<defs>
<linearGradient id="paint0_linear_2685_32152" x1="0" y1="0" x2="17.347" y2="1.62554" gradientUnits="userSpaceOnUse">
<stop stop-color="#00828B"/>
<stop offset="1" stop-color="#65BFAD"/>
</linearGradient>
</defs>
</svg>
