<svg width="16" height="16" viewBox="0 0 16 16" fill="none" xmlns="http://www.w3.org/2000/svg">
<path fill-rule="evenodd" clip-rule="evenodd" d="M0 0H16V16H0V0ZM12.6335 11.4108C12.6914 11.4684 12.7232 11.5451 12.7232 11.627C12.7232 11.7086 12.6912 11.7855 12.6335 11.8433L11.843 12.6337C11.727 12.7493 11.5261 12.7491 11.4103 12.6337L7.66318 8.8866C7.61591 8.83933 7.61591 8.7626 7.66318 8.71551L8.71518 7.66333C8.73882 7.63987 8.76973 7.62805 8.80064 7.62805C8.83173 7.62805 8.86264 7.63987 8.88609 7.66333L12.6335 11.4108ZM8.18773 7.6766L7.67646 8.18787L5.30027 5.82114L4.111 5.43969C4.005 5.40551 3.91773 5.32787 3.87173 5.22642L3.36664 4.11224C3.299 3.96314 3.33137 3.78533 3.44682 3.66969L3.66936 3.44733C3.78518 3.33151 3.963 3.29914 4.11209 3.36678L5.22627 3.87205C5.32755 3.91805 5.40518 4.00514 5.43918 4.11133L5.76482 5.12624C5.80136 5.24005 5.86518 5.34514 5.94973 5.43005L8.18773 7.6766ZM12.8906 12.1004C13.017 11.9739 13.0868 11.8057 13.0868 11.627C13.0868 11.4481 13.017 11.2799 12.8906 11.1535L9.14336 7.40624C8.95427 7.21714 8.647 7.21751 8.45809 7.40624L8.44482 7.41951L6.20755 5.17333C6.16355 5.12914 6.13009 5.07442 6.11118 5.01514L5.78555 4.00024C5.72009 3.7966 5.57118 3.62914 5.37646 3.54078L4.26227 3.03569C3.97682 2.90624 3.63482 2.96787 3.41227 3.19024L3.18973 3.4126C2.96773 3.6346 2.90555 3.97624 3.03537 4.26242L3.54046 5.37678C3.62882 5.57133 3.79609 5.72042 3.99973 5.78587L5.10573 6.1406L7.41918 8.44514L7.40609 8.45842C7.21718 8.64733 7.21718 8.95478 7.40609 9.14369L11.1532 12.8908C11.2837 13.0213 11.4552 13.0866 11.6268 13.0866C11.7981 13.0866 11.9695 13.0213 12.1001 12.8908L12.8906 12.1004ZM9.56409 5.14769L8.21191 6.49987L7.95464 6.24278L9.24573 4.95187C9.20118 4.39605 9.39791 3.85769 9.79318 3.46242C10.3588 2.89678 11.2246 2.74842 11.9481 3.09369C12.0014 3.11914 12.039 3.16878 12.049 3.22696C12.0592 3.28514 12.0401 3.3446 11.9985 3.38623L10.8575 4.52696C10.7841 4.60042 10.7435 4.69824 10.7435 4.80205C10.7435 4.90605 10.7841 5.00369 10.8575 5.07733C11.0046 5.22424 11.2608 5.22424 11.4079 5.07733L12.5486 3.9366C12.5906 3.89478 12.6508 3.87587 12.7079 3.88587C12.7661 3.89587 12.8159 3.93351 12.8412 3.98678C13.1863 4.71005 13.0381 5.57605 12.4725 6.14187C12.0772 6.53696 11.5385 6.73405 10.9832 6.68914L10.0026 7.66951L9.74555 7.41242L10.7872 6.37096C10.8266 6.33114 10.8825 6.31151 10.9386 6.31914C11.4137 6.37951 11.8786 6.22114 12.2154 5.8846C12.6086 5.49114 12.7521 4.91787 12.6065 4.39296L11.665 5.33442C11.5228 5.4766 11.3337 5.55496 11.1328 5.55496C10.9315 5.55496 10.7426 5.4766 10.6005 5.33442C10.4583 5.19223 10.3799 5.00314 10.3799 4.80205C10.3799 4.60096 10.4583 4.41205 10.6005 4.26987L11.5421 3.32842C11.0159 3.18278 10.4435 3.32605 10.0503 3.71951C9.71373 4.05605 9.55536 4.52133 9.61591 4.99623C9.623 5.05205 9.60391 5.10805 9.56409 5.14769ZM6.689 10.9833L7.66936 10.003L7.41227 9.74587L6.37064 10.7875C6.33082 10.8273 6.31155 10.8831 6.31864 10.939C6.37918 11.4137 6.22082 11.8791 5.88446 12.2157C5.491 12.6091 4.91718 12.7526 4.39282 12.6068L5.33409 11.6653C5.62755 11.3719 5.62755 10.8942 5.33409 10.6008C5.04046 10.3073 4.56318 10.3073 4.26955 10.6008L3.32809 11.5422C3.18246 11.0171 3.32573 10.4439 3.71936 10.0506C4.05573 9.71405 4.52064 9.55496 4.99591 9.61605C5.051 9.62278 5.10755 9.60405 5.14736 9.56423L6.59809 8.11351L6.341 7.85642L4.95136 9.24605C4.39609 9.20169 3.85736 9.39824 3.46209 9.79351C2.89646 10.359 2.74827 11.225 3.09336 11.9484C3.11882 12.0017 3.16846 12.0393 3.22682 12.0491C3.28337 12.059 3.34409 12.0404 3.38609 11.9986L4.52664 10.8579C4.67827 10.7062 4.92536 10.7062 5.077 10.8579C5.22864 11.0095 5.22864 11.2564 5.077 11.4082L3.93627 12.549C3.89446 12.5906 3.87555 12.6501 3.88573 12.7082C3.89555 12.7664 3.93318 12.8162 3.98646 12.8415C4.24682 12.9657 4.52518 13.0259 4.80191 13.0259C5.29391 13.0259 5.77936 12.835 6.14155 12.4728C6.53682 12.0775 6.73355 11.539 6.689 10.9833Z" fill="url(#paint0_linear_2685_32146)"/>
<defs>
<linearGradient id="paint0_linear_2685_32146" x1="0" y1="0" x2="17.347" y2="1.62554" gradientUnits="userSpaceOnUse">
<stop stop-color="#00828B"/>
<stop offset="1" stop-color="#65BFAD"/>
</linearGradient>
</defs>
</svg>
