<svg width="16" height="16" viewBox="0 0 16 16" fill="none" xmlns="http://www.w3.org/2000/svg">
<path fill-rule="evenodd" clip-rule="evenodd" d="M16 0H0V16H16V0ZM5.26607 2.62915C4.77907 2.62915 4.38428 3.02394 4.38428 3.51094V12.4892C4.38428 12.9762 4.77907 13.371 5.26607 13.371H11.3585C11.8455 13.371 12.2403 12.9762 12.2403 12.4892V5.12056L12.2403 5.11411L12.2403 5.10766V4.79355C12.2403 3.59819 11.2712 2.62915 10.0759 2.62915H5.26607ZM11.7593 4.79355V4.87362H10.7172C10.4959 4.87362 10.3164 4.69417 10.3164 4.4728V3.1902C10.3164 3.16795 10.3134 3.14642 10.3078 3.12597C11.1277 3.23895 11.7593 3.9425 11.7593 4.79355ZM9.83545 3.1902C9.83545 3.16212 9.84026 3.13517 9.8491 3.11013H5.26607C5.04471 3.11013 4.86526 3.28958 4.86526 3.51094V12.4892C4.86526 12.7106 5.04471 12.89 5.26607 12.89H11.3585C11.5798 12.89 11.7593 12.7106 11.7593 12.4892V5.3546H10.7172C10.2302 5.3546 9.83545 4.95981 9.83545 4.4728V3.1902ZM9.25553 6.45049C9.3774 6.5033 9.43338 6.64491 9.38057 6.76677L7.97106 10.0195C7.91825 10.1414 7.77664 10.1973 7.65478 10.1445C7.53291 10.0917 7.47692 9.95013 7.52973 9.82826L8.93925 6.57553C8.99206 6.45366 9.13366 6.39768 9.25553 6.45049ZM7.16177 7.49169C7.25569 7.39778 7.25569 7.24551 7.16177 7.15159C7.06786 7.05767 6.91559 7.05767 6.82167 7.15159L5.73743 8.23583C5.64351 8.32975 5.64351 8.48202 5.73743 8.57594L6.82167 9.66018C6.91559 9.7541 7.06786 9.7541 7.16177 9.66018C7.25569 9.56626 7.25569 9.41399 7.16177 9.32007L6.24758 8.40588L7.16177 7.49169ZM9.42373 9.66027C9.32981 9.56635 9.32981 9.41409 9.42373 9.32017L10.3379 8.40598L9.42373 7.49179C9.32981 7.39787 9.32981 7.2456 9.42373 7.15169C9.51764 7.05777 9.66991 7.05777 9.76383 7.15169L10.8481 8.23593C10.942 8.32984 10.942 8.48211 10.8481 8.57603L9.76383 9.66027C9.66991 9.75419 9.51764 9.75419 9.42373 9.66027Z" fill="#E8E8E8"/>
</svg>
