<svg width="16" height="16" viewBox="0 0 16 16" fill="none" xmlns="http://www.w3.org/2000/svg">
<path fill-rule="evenodd" clip-rule="evenodd" d="M0 0H16V16H0V0ZM9.9602 8.68551C9.9602 8.45563 9.8862 8.27256 9.7384 8.1359C9.5904 7.99945 9.3902 7.93122 9.1374 7.93122H9.0992C9.0862 7.93122 9.0738 7.93242 9.0608 7.93503L9.8494 7.10031V6.79779H8.2916V7.11171H9.4246L8.6206 7.98865V8.24114C8.7406 8.22854 8.8618 8.22214 8.9842 8.22214C9.3748 8.22214 9.5698 8.3766 9.5698 8.68551C9.5698 8.84618 9.5176 8.97002 9.413 9.05686C9.3084 9.14349 9.1592 9.18691 8.9652 9.18691C8.7686 9.18691 8.5314 9.14109 8.2532 9.04905V9.35537C8.488 9.45741 8.7254 9.50863 8.9652 9.50863C9.2686 9.50863 9.5104 9.434 9.6904 9.28454C9.8702 9.13529 9.9602 8.93561 9.9602 8.68551ZM7.748 8.66991C7.748 8.41481 7.6702 8.21453 7.5148 8.06908C7.359 7.92342 7.1432 7.85079 6.8676 7.85079C6.7554 7.85079 6.6292 7.8636 6.4888 7.88901L6.5386 7.11171H7.6142V6.79779H6.2172L6.1444 7.94263V8.19532C6.3818 8.16992 6.5794 8.15691 6.7376 8.15691C6.957 8.15691 7.1152 8.19793 7.2122 8.27956C7.3092 8.36119 7.3578 8.49264 7.3578 8.67391C7.3578 8.83997 7.306 8.96682 7.2026 9.05486C7.0994 9.14309 6.9508 9.18691 6.7568 9.18691C6.5552 9.18691 6.3128 9.14109 6.0296 9.04905V9.35537C6.2568 9.45741 6.5006 9.50863 6.7606 9.50863C7.0566 9.50863 7.295 9.4314 7.4762 9.27694C7.6576 9.12248 7.748 8.9202 7.748 8.66991ZM8 11.7675C8.5704 11.4454 9.4206 11.05 10.3914 10.8756C10.6644 10.8265 12.026 10.5422 12.026 9.75513C12.026 9.39038 11.8954 9.14849 11.6452 8.71733C11.345 8.19993 10.9722 7.55688 10.9722 6.63112C10.9722 5.96947 11.1456 5.33503 11.488 4.743L11.3658 4.59254C10.8586 4.84604 10.3304 4.97449 9.7936 4.97449C9.1376 4.97449 8.5348 4.80222 8 4.46229C7.465 4.80222 6.8622 4.97449 6.2062 4.97449C5.6694 4.97449 5.1414 4.84604 4.6342 4.59254C4.62229 4.60718 4.61039 4.62178 4.59853 4.63635C4.56936 4.67215 4.54038 4.70773 4.5118 4.743C4.8542 5.33503 5.0276 5.96947 5.0276 6.63112C5.0276 7.55688 4.6548 8.19993 4.3552 8.71653C4.1044 9.14849 3.9738 9.39038 3.9738 9.75513C3.9738 10.5422 5.3354 10.8265 5.6086 10.8756C6.5792 11.05 7.4294 11.4454 8 11.7675ZM11.9014 4.83163C11.5504 5.39405 11.3722 5.99948 11.3722 6.63112C11.3722 7.44908 11.7151 8.04023 11.9906 8.51537L11.9908 8.51565C12.2608 8.98083 12.426 9.28935 12.426 9.75513C12.426 10.8329 10.9228 11.1869 10.462 11.2695C9.49 11.4442 8.6414 11.8561 8.1006 12.1709C8.0694 12.1891 8.0346 12.1981 8 12.1981C7.9652 12.1981 7.9304 12.1891 7.8994 12.1709C7.3586 11.8561 6.5098 11.4442 5.5378 11.2695C5.077 11.1869 3.5738 10.8329 3.5738 9.75513C3.5738 9.28935 3.739 8.98083 4.009 8.51625L4.00992 8.51466C4.28536 8.03915 4.6276 7.44833 4.6276 6.63112C4.6276 5.99948 4.4496 5.39405 4.0984 4.83163C4.0528 4.75901 4.0588 4.66557 4.113 4.59914C4.2146 4.4747 4.3212 4.34365 4.4264 4.2134C4.4874 4.13797 4.5936 4.11716 4.6786 4.16398C5.1712 4.43628 5.685 4.57434 6.2062 4.57434C6.835 4.57434 7.3844 4.40527 7.886 4.05774C7.9544 4.01032 8.0454 4.01032 8.1138 4.05774C8.6154 4.40527 9.1648 4.57434 9.7936 4.57434C10.3148 4.57434 10.8286 4.43628 11.3212 4.16398C11.4064 4.11716 11.5124 4.13797 11.5734 4.2134C11.6786 4.34365 11.7852 4.4747 11.8868 4.59914C11.9412 4.66557 11.947 4.75901 11.9014 4.83163ZM8 13.1528C8.3446 12.9113 9.3726 12.2519 10.5988 12.0314C13.0124 11.5978 13.2 10.1795 13.2 9.75513C13.2 9.05706 12.9258 8.58467 12.6604 8.1275L12.6598 8.1264C12.4074 7.69117 12.1462 7.24085 12.1462 6.63112C12.1462 5.66715 12.7028 4.98629 12.9774 4.70919C12.6886 4.35785 11.9592 3.46831 11.5994 3.00473C11.054 3.51933 10.4202 3.80004 9.7936 3.80004C9.098 3.80004 8.5228 3.51693 8 2.9129C7.477 3.51693 6.9018 3.80004 6.2062 3.80004C5.5796 3.80004 4.9458 3.51933 4.4006 3.00473C4.0408 3.46831 3.3112 4.35785 3.0224 4.70919C3.297 4.98629 3.8536 5.66715 3.8536 6.63112C3.8536 7.24136 3.5922 7.69193 3.3394 8.1275L3.33905 8.12811C3.07396 8.58509 2.8 9.05736 2.8 9.75513C2.8 10.1795 2.9874 11.5978 5.401 12.0314C6.6272 12.2519 7.6552 12.9113 8 13.1528ZM12.5462 6.63112C12.5462 7.13352 12.7594 7.50106 13.0064 7.92682L13.0067 7.92732C13.2848 8.40658 13.6 8.94969 13.6 9.75513C13.6 11.0974 12.5044 12.0956 10.6694 12.4253C9.28734 12.6737 8.13829 13.5461 8.12189 13.5585L8.1218 13.5586C8.0858 13.5862 8.0428 13.6 8 13.6C7.957 13.6 7.914 13.5862 7.8782 13.5588C7.8668 13.5498 6.7118 12.6736 5.3304 12.4253C3.4954 12.0956 2.4 11.0974 2.4 9.75513C2.4 8.94942 2.7152 8.40621 2.9934 7.92682C3.2404 7.50106 3.4536 7.13352 3.4536 6.63112C3.4536 5.57352 2.6304 4.88946 2.622 4.88265C2.5808 4.84904 2.5546 4.80022 2.5494 4.7472C2.544 4.69418 2.56 4.64116 2.5938 4.59995C2.6072 4.58394 3.9182 2.99453 4.2186 2.58277C4.2538 2.53455 4.3086 2.50454 4.368 2.50094C4.4274 2.49554 4.4854 2.52035 4.5262 2.56396C5.0302 3.10297 5.6266 3.39988 6.2062 3.39988C6.847 3.39988 7.351 3.11437 7.8412 2.47413C7.917 2.37529 8.083 2.37529 8.1588 2.47413C8.6488 3.11437 9.1528 3.39988 9.7936 3.39988C10.3732 3.39988 10.9696 3.10297 11.4736 2.56396C11.5144 2.52035 11.572 2.49654 11.6318 2.50094C11.6914 2.50454 11.746 2.53455 11.7812 2.58277C12.0816 2.99453 13.3926 4.58394 13.406 4.59995C13.44 4.64116 13.456 4.69418 13.4508 4.7474C13.4452 4.80062 13.4188 4.84944 13.3774 4.88305C13.3694 4.88946 12.5462 5.57352 12.5462 6.63112Z" fill="#E8E8E8"/>
</svg>
