<svg width="16" height="16" viewBox="0 0 16 16" fill="none" xmlns="http://www.w3.org/2000/svg">
<path fill-rule="evenodd" clip-rule="evenodd" d="M0 0H16V16H0V0ZM8.41661 3.60903H9.01822V4.21444H9.41929V3.60903H10.0209V3.20541H9.41929V2.6H9.01822V3.20541H8.41661V3.60903ZM10.823 5.82888H11.4247V6.4343H11.8257V5.82888H12.4273V5.42527H11.8257V4.81986H11.4247V5.42527H10.823V5.82888ZM8.14589 9.95842C9.11328 10.3441 9.99724 11.2336 10.3803 12.2067C10.7633 11.2336 11.6472 10.3441 12.6144 9.95842C11.6472 9.57297 10.7633 8.68341 10.3803 7.71011C9.99724 8.68341 9.11328 9.57297 8.14589 9.95842ZM10.5808 6.71884C10.5808 8.13834 12.1889 9.75661 13.5995 9.75661C13.7102 9.75661 13.8 9.84702 13.8 9.95842C13.8 10.07 13.7102 10.1602 13.5995 10.1602C12.1889 10.1602 10.5808 11.7785 10.5808 13.1982C10.5808 13.3096 10.4912 13.4 10.3803 13.4C10.2694 13.4 10.1797 13.3096 10.1797 13.1982C10.1797 11.7785 8.57143 10.1602 7.16086 10.1602C7.05016 10.1602 6.96032 10.07 6.96032 9.95842C6.96032 9.84702 7.05016 9.75661 7.16086 9.75661C8.57143 9.75661 10.1797 8.13834 10.1797 6.71884C10.1797 6.60744 10.2694 6.51704 10.3803 6.51704C10.4912 6.51704 10.5808 6.60744 10.5808 6.71884ZM5.40857 6.4343C4.31966 6.4343 3.18503 6.20807 2.60107 5.78065V7.51032C2.60107 7.96862 3.81893 8.4812 5.44868 8.4812C6.86447 8.4812 7.92711 8.1002 8.21608 7.71354V5.78065C7.63212 6.20807 6.49748 6.4343 5.40857 6.4343ZM8.21608 5.12256C8.21608 4.74337 7.14802 4.21444 5.40857 4.21444C3.66913 4.21444 2.60107 4.74337 2.60107 5.12256C2.60107 5.50175 3.66913 6.03068 5.40857 6.03068C7.14802 6.03068 8.21608 5.50175 8.21608 5.12256ZM5.40757 12.774C7.01507 12.774 8.21608 12.2535 8.21608 11.7884V11.0758H8.61715V11.7884C8.61715 12.6907 6.96353 13.1776 5.40757 13.1776C3.85262 13.1776 2.2 12.6907 2.2 11.7884V5.02166H2.21243C2.33837 4.23502 3.91639 3.81083 5.40857 3.81083C6.96413 3.81083 8.61715 4.27054 8.61715 5.12256V8.85596H8.21608V8.25034C7.64956 8.63922 6.63345 8.88481 5.44868 8.88481C4.34293 8.88481 3.19065 8.64628 2.60107 8.19585V9.81453C2.60107 10.2728 3.82374 10.7854 5.46011 10.7854C6.18986 10.7854 6.89074 10.6831 7.43339 10.4976L7.56213 10.8799C6.97917 11.0792 6.23238 11.189 5.46011 11.189C4.34954 11.189 3.19225 10.9501 2.60107 10.4989V11.7884C2.60107 12.2535 3.80128 12.774 5.40757 12.774Z" fill="#E8E8E8"/>
</svg>
