<svg width="16" height="16" viewBox="0 0 16 16" fill="none" xmlns="http://www.w3.org/2000/svg">
<path fill-rule="evenodd" clip-rule="evenodd" d="M0 0H16V16H0V0ZM3.5906 10.5992C3.5906 11.0615 3.9638 11.4376 4.4222 11.4376C4.8806 11.4376 5.2542 11.0615 5.2542 10.5992C5.2542 10.1373 4.8806 9.76125 4.4222 9.76125C3.9638 9.76125 3.5906 10.1373 3.5906 10.5992ZM5.6542 10.5992C5.6542 11.0015 5.4606 11.3558 5.165 11.5827L5.719 12.6109H7.7998V13.014H5.5998C5.5266 13.014 5.4594 12.9736 5.4242 12.9088L4.8114 11.7713C4.6882 11.8128 4.559 11.8406 4.4222 11.8406C3.743 11.8406 3.1906 11.284 3.1906 10.5992C3.1906 10.2284 3.3562 9.8987 3.613 9.67137L2.827 8.29935C2.791 8.23688 2.791 8.1603 2.827 8.09782L3.8294 6.34814L4.1754 6.54967L3.2306 8.19859L3.9498 9.45372C4.0954 9.39245 4.2546 9.35819 4.4222 9.35819C5.1014 9.35819 5.6542 9.91482 5.6542 10.5992ZM11.1458 5.78587C11.1458 6.24818 11.519 6.62424 11.9778 6.62424C12.4362 6.62424 12.8094 6.24818 12.8094 5.78587C12.8094 5.32396 12.4362 4.9475 11.9778 4.9475C11.519 4.9475 11.1458 5.32396 11.1458 5.78587ZM13.2094 5.78587C13.2094 6.15669 13.0438 6.48639 12.787 6.71412L13.573 8.08613C13.609 8.14821 13.609 8.22519 13.573 8.28767L12.5706 10.0369L12.2246 9.83542L13.169 8.1869L12.4498 6.93137C12.3046 6.99263 12.1454 7.0273 11.9778 7.0273C11.2982 7.0273 10.7458 6.47027 10.7458 5.78587C10.7458 5.38321 10.9402 5.02812 11.2358 4.80119L10.6798 3.74356H8.5998V3.3405H10.7998C10.8742 3.3405 10.9422 3.38162 10.9766 3.44772L11.5898 4.61377C11.7126 4.57226 11.8414 4.54444 11.9778 4.54444C12.657 4.54444 13.2094 5.10147 13.2094 5.78587ZM10.1258 12.359C10.1258 12.8209 10.499 13.1969 10.9578 13.1969C11.4162 13.1969 11.7894 12.8209 11.7894 12.359C11.7894 11.8967 11.4162 11.5206 10.9578 11.5206C10.499 11.5206 10.1258 11.8967 10.1258 12.359ZM6.3646 8.1998L7.2818 9.80035H9.1154L10.033 8.1998L9.1154 6.59965H7.2818L6.3646 8.1998ZM4.623 4.04102C4.623 4.50333 4.9962 4.87939 5.4546 4.87939C5.9134 4.87939 6.2866 4.50333 6.2866 4.04102C6.2866 3.57912 5.9134 3.20306 5.4546 3.20306C4.9962 3.20306 4.623 3.57912 4.623 4.04102ZM10.281 11.3235C10.4758 11.1941 10.7078 11.1176 10.9578 11.1176C11.637 11.1176 12.1894 11.6742 12.1894 12.359C12.1894 13.043 11.637 13.6 10.9578 13.6C10.2786 13.6 9.7258 13.043 9.7258 12.359C9.7258 12.0744 9.825 11.8152 9.985 11.6057L9.0974 10.2034H7.1662C7.095 10.2034 7.029 10.1651 6.9934 10.1026L5.961 8.30056C5.925 8.23849 5.925 8.16151 5.961 8.09903L6.9578 6.35902L6.1218 5.08172C5.9294 5.20748 5.7006 5.28245 5.4546 5.28245C4.7754 5.28245 4.223 4.72582 4.223 4.04102C4.223 3.35663 4.7754 2.8 5.4546 2.8C6.1338 2.8 6.6866 3.35663 6.6866 4.04102C6.6866 4.33002 6.5838 4.59321 6.419 4.80402L7.3302 6.19659H9.231C9.3026 6.19659 9.3686 6.23488 9.4042 6.29735L10.437 8.09903C10.473 8.16151 10.473 8.23849 10.437 8.30056L9.4534 10.0168L10.281 11.3235Z" fill="#E8E8E8"/>
</svg>
