<svg width="16" height="16" viewBox="0 0 16 16" fill="none" xmlns="http://www.w3.org/2000/svg">
<path fill-rule="evenodd" clip-rule="evenodd" d="M0 0H16V16H0V0ZM3.11815 13.2H5.60151L7.1092 10.0212L5.86472 7.4592L3.11815 13.2ZM5.86351 6.7978C5.94009 6.7978 6.01025 6.8416 6.04393 6.9106L7.51174 9.933C7.5384 9.9874 7.5386 10.0508 7.51274 10.1056L5.90962 13.4856C5.87634 13.5554 5.80598 13.6 5.7284 13.6H2.80041C2.73165 13.6 2.6675 13.5648 2.63102 13.5068C2.59413 13.4486 2.58992 13.3758 2.61959 13.3138L5.68249 6.9116C5.71557 6.8422 5.78573 6.798 5.86291 6.7978H5.86351ZM10.5317 13.2H12.9991V11.2H12.0651C11.9877 11.2 11.9172 11.1554 11.8841 11.0858L7.94394 2.8H4.7798L4.778 4.8H6.39234C6.46972 4.8 6.54029 4.8444 6.57336 4.914L10.5317 13.2ZM12.192 10.8H13.1995C13.3104 10.8 13.4 10.8896 13.4 11V13.4C13.4 13.5104 13.3104 13.6 13.1995 13.6H10.4053C10.3279 13.6 10.2577 13.5556 10.2244 13.486L6.26585 5.2H4.57733C4.52401 5.2 4.47309 5.179 4.4356 5.1414C4.39771 5.1038 4.37687 5.053 4.37687 4.9998L4.37907 2.5998C4.37927 2.4894 4.46908 2.4 4.57954 2.4H8.07063C8.14821 2.4 8.21878 2.4446 8.25186 2.5142L12.192 10.8Z" fill="#E8E8E8"/>
</svg>
