<svg width="16" height="16" viewBox="0 0 16 16" fill="none" xmlns="http://www.w3.org/2000/svg">
<path fill-rule="evenodd" clip-rule="evenodd" d="M0 0H16V16H0V0ZM3.25 7.875C3.25 9.3225 4.4275 10.5 5.875 10.5C7.3225 10.5 8.5 9.3225 8.5 7.875C8.5 6.4275 7.3225 5.25 5.875 5.25C4.4275 5.25 3.25 6.4275 3.25 7.875ZM11.25 12.75C11.6635 12.75 12 12.4135 12 12C12 11.5865 11.6635 11.25 11.25 11.25C10.8365 11.25 10.5 11.5865 10.5 12C10.5 12.4135 10.8365 12.75 11.25 12.75ZM12 4C12 3.5865 11.6635 3.25 11.25 3.25C10.8365 3.25 10.5 3.5865 10.5 4C10.5 4.4135 10.8365 4.75 11.25 4.75C11.6635 4.75 12 4.4135 12 4ZM12.75 8C12.75 7.5865 12.4135 7.25 12 7.25C11.5865 7.25 11.25 7.5865 11.25 8C11.25 8.4135 11.5865 8.75 12 8.75C12.4135 8.75 12.75 8.4135 12.75 8ZM10.7755 8.25H8.97525C8.934 8.59325 8.836 8.91825 8.6925 9.21825L10.6997 10.8832C10.8665 10.8007 11.0515 10.75 11.25 10.75C11.9392 10.75 12.5 11.3107 12.5 12C12.5 12.6892 11.9392 13.25 11.25 13.25C10.5607 13.25 10 12.6892 10 12C10 11.694 10.1147 11.4172 10.2977 11.1997L8.4385 9.65725C7.87325 10.4677 6.93575 11 5.875 11C4.15175 11 2.75 9.59825 2.75 7.875C2.75 6.15175 4.15175 4.75 5.875 4.75C7.00525 4.75 7.99425 5.355 8.543 6.256L10.2977 4.80025C10.1147 4.58275 10 4.306 10 4C10 3.31075 10.5607 2.75 11.25 2.75C11.9392 2.75 12.5 3.31075 12.5 4C12.5 4.68925 11.9392 5.25 11.25 5.25C11.0515 5.25 10.8665 5.19925 10.6997 5.11675L8.774 6.714C8.9035 7.0365 8.979 7.38525 8.99375 7.75H10.7755C10.8912 7.18025 11.3965 6.75 12 6.75C12.6892 6.75 13.25 7.31075 13.25 8C13.25 8.68925 12.6892 9.25 12 9.25C11.3965 9.25 10.8912 8.81975 10.7755 8.25Z" fill="url(#paint0_linear_2685_32140)"/>
<defs>
<linearGradient id="paint0_linear_2685_32140" x1="0" y1="0" x2="17.347" y2="1.62554" gradientUnits="userSpaceOnUse">
<stop stop-color="#00828B"/>
<stop offset="1" stop-color="#65BFAD"/>
</linearGradient>
</defs>
</svg>
