<svg width="16" height="16" viewBox="0 0 16 16" fill="none" xmlns="http://www.w3.org/2000/svg">
<path fill-rule="evenodd" clip-rule="evenodd" d="M16 0H0V16H16V0ZM8.35641 2.65129L8.00966 2.00002C7.96743 2.04996 8.07341 11.7946 8.08315 11.8157V11.9148C8.08127 11.9448 8.08016 11.9746 8.07977 12.0043C8.05865 12.3186 8.01649 12.6312 7.95357 12.94L7.94778 12.9757C7.92924 13.0911 7.91093 13.2051 7.83988 13.3078C7.83988 13.322 7.83988 13.3362 7.84679 13.3574C7.97428 13.7325 8.0092 14.1146 8.03072 14.504V14.6461C8.03072 14.6541 8.0307 14.6616 8.03069 14.6688C8.03055 14.7369 8.03049 14.7661 8.04473 14.7837C8.05539 14.7968 8.07405 14.8035 8.10667 14.8151C8.1225 14.8208 8.14162 14.8276 8.1647 14.8369C8.18169 14.8432 8.19926 14.8483 8.21706 14.8535L8.21707 14.8535C8.25883 14.8655 8.30188 14.878 8.34173 14.9076C8.38437 14.9076 8.39127 14.8723 8.39127 14.8438L8.37015 14.6104V13.9591C8.36446 13.8653 8.37783 13.7721 8.39066 13.6826C8.39339 13.6636 8.39609 13.6448 8.39858 13.6262L8.39898 13.6257C8.41142 13.4836 8.47266 13.3627 8.54462 13.2446C8.77116 13.0808 8.98401 12.8988 9.18105 12.7005C10.3943 11.4479 10.996 9.9407 10.9676 8.18544C10.9607 7.59833 10.8685 7.01771 10.6988 6.45171C10.4158 5.52515 10.0195 4.66843 9.43198 3.89698C9.18179 3.57231 8.90994 3.26493 8.6183 2.97692C8.51882 2.87785 8.43437 2.77147 8.35641 2.65129ZM7.84038 2.01507C7.85269 2.00222 7.865 1.98937 7.87731 2.01399L7.95608 11.9649L7.81397 13.0263C7.79948 13.1197 7.77817 13.212 7.75022 13.3024C7.74816 13.3083 7.74626 13.3146 7.74432 13.3209C7.73253 13.3595 7.71972 13.4014 7.66496 13.4014C7.4457 13.2313 7.23376 13.0543 7.03562 12.8634C6.22884 12.0709 5.606 11.1577 5.25925 10.0679C5.13216 9.65745 4.96934 8.23473 5.00467 7.83155C5.08181 6.71375 5.35385 5.65199 5.88169 4.66129C6.27838 3.92516 6.77373 3.26699 7.40307 2.7221L7.44105 2.68905L7.44105 2.68905C7.54127 2.60205 7.63877 2.51741 7.71449 2.41068C7.79205 2.28968 7.84158 2.163 7.83468 2.02089L7.84038 2.01507Z" fill="url(#paint0_linear_2685_32138)"/>
<defs>
<linearGradient id="paint0_linear_2685_32138" x1="0" y1="0" x2="17.347" y2="1.62554" gradientUnits="userSpaceOnUse">
<stop stop-color="#00828B"/>
<stop offset="1" stop-color="#65BFAD"/>
</linearGradient>
</defs>
</svg>
