<svg width="16" height="16" viewBox="0 0 16 16" fill="none" xmlns="http://www.w3.org/2000/svg">
<path fill-rule="evenodd" clip-rule="evenodd" d="M0 0H16V16H0V0ZM10.2 11.1406V12.3111C10.2 12.6369 9.26 13 7.9112 13C6.5896 13 5.8 12.6497 5.8 12.3111V11.1736C6.2242 11.4572 6.9632 11.6226 7.9112 11.6226C8.7808 11.6226 9.6932 11.468 10.2 11.1406ZM5.8 9.39522C6.2242 9.67885 6.9632 9.84406 7.9112 9.84406C8.7808 9.84406 9.6932 9.68965 10.2 9.36202V10.5365C10.1938 10.8618 9.2558 11.2226 7.9112 11.2226C6.5946 11.2226 5.8062 10.8748 5.8 10.5373V9.39522ZM10.2 7.40583V8.75816C10.1938 9.08319 9.2558 9.44403 7.9112 9.44403C6.5946 9.44403 5.8062 9.09639 5.8 8.75896V7.43904C6.2242 7.72266 6.9632 7.88788 7.9112 7.88788C8.7808 7.88788 9.6932 7.73326 10.2 7.40583ZM5.7996 6.80038L5.7994 6.79858C5.7994 6.45974 6.5892 6.10931 7.9112 6.10931C9.3854 6.10931 10.2006 6.51695 10.2006 6.79858L10.2004 6.80038H10.2V6.80198C10.1938 7.0834 9.3796 7.48784 7.9112 7.48784C6.5946 7.48784 5.8062 7.14001 5.8 6.80258V6.80038H5.7996ZM10.6 8.75476V6.80358C10.6 6.80178 10.6006 6.80038 10.6006 6.79858C10.6006 6.05011 9.2064 5.70927 7.9112 5.70927C6.3854 5.70927 5.3994 6.13691 5.3994 6.79858C5.3994 6.79968 5.39955 6.80068 5.3997 6.80168C5.39985 6.80268 5.4 6.80368 5.4 6.80478V8.75476H5.3994C5.3994 8.75589 5.39956 8.75696 5.39971 8.75801C5.39986 8.75901 5.4 8.75999 5.4 8.76096V10.5333H5.3994C5.3994 10.5355 5.4 10.5373 5.4 10.5395V12.3111C5.4 12.9726 6.3858 13.4 7.9112 13.4C9.2062 13.4 10.6 13.0594 10.6 12.3111V10.5383C10.6 10.5374 10.6002 10.5366 10.6003 10.5358C10.6005 10.535 10.6006 10.5342 10.6006 10.5333H10.6V8.75976C10.6 8.75886 10.6002 8.75806 10.6003 8.75726C10.6005 8.75646 10.6006 8.75566 10.6006 8.75476H10.6ZM13.6 4.02412C13.6 4.13453 13.5106 4.22413 13.4 4.22413C13.1558 4.22413 12.9572 4.42155 12.9572 4.66418C12.9572 4.9068 13.1558 5.10422 13.4 5.10422C13.5106 5.10422 13.6 5.19383 13.6 5.30424V9.40062C13.6 9.51103 13.5106 9.60064 13.4 9.60064H11.4V9.2006H12.4V8.60055H11.4V8.20051H12.6C12.7106 8.20051 12.8 8.28992 12.8 8.40053V9.2006H13.2V5.48025C12.8314 5.39044 12.5572 5.05861 12.5572 4.66418C12.5572 4.26954 12.8314 3.93771 13.2 3.8479V3.20004H2.8V3.8479C3.1686 3.93771 3.4428 4.26954 3.4428 4.66418C3.4428 5.05861 3.1686 5.39044 2.8 5.48025V9.2006H3.2V8.40053C3.2 8.28992 3.2894 8.20051 3.4 8.20051H4.6V8.60055H3.6V9.2006H4.6V9.60064H2.6C2.4894 9.60064 2.4 9.51103 2.4 9.40062V5.30424C2.4 5.19383 2.4894 5.10422 2.6 5.10422C2.8442 5.10422 3.0428 4.9068 3.0428 4.66418C3.0428 4.42155 2.8442 4.22413 2.6 4.22413C2.4894 4.22413 2.4 4.13453 2.4 4.02412V3.00002C2.4 2.88941 2.4894 2.8 2.6 2.8H13.4C13.5106 2.8 13.6 2.88941 13.6 3.00002V4.02412ZM5.6 4.00011V5.60026H5.2V4.20013H4.4V7.20041H4.8V7.60045H4.2C4.0894 7.60045 4 7.51084 4 7.40043V4.00011C4 3.8895 4.0894 3.80009 4.2 3.80009H5.4C5.5106 3.80009 5.6 3.8895 5.6 4.00011ZM11.4 7.20041H11.6V4.20013H10.8V5.60026H10.4V4.00011C10.4 3.8895 10.4894 3.80009 10.6 3.80009H11.8C11.9106 3.80009 12 3.8895 12 4.00011V7.40043C12 7.51084 11.9106 7.60045 11.8 7.60045H11.4V7.20041ZM10 4.00011V5.40024H9.6V4.20013H8.6V5.20023H8.2V4.00011C8.2 3.8895 8.2894 3.80009 8.4 3.80009H9.8C9.9106 3.80009 10 3.8895 10 4.00011ZM7.4 4.20013V5.20023H7.8V4.00011C7.8 3.8895 7.7106 3.80009 7.6 3.80009H6.2C6.0894 3.80009 6 3.8895 6 4.00011V5.40024H6.4V4.20013H7.4Z" fill="#E8E8E8"/>
</svg>
