<svg width="16" height="16" viewBox="0 0 16 16" fill="none" xmlns="http://www.w3.org/2000/svg">
<path fill-rule="evenodd" clip-rule="evenodd" d="M0 0H16V16H0V0ZM8 8.92C7.8634 8.92 7.752 8.8088 7.752 8.672C7.752 8.5352 7.8634 8.424 8 8.424C8.1368 8.424 8.248 8.5352 8.248 8.672C8.248 8.8088 8.1368 8.92 8 8.92ZM8 8.024C7.6426 8.024 7.352 8.3146 7.352 8.672C7.352 8.9592 7.5408 9.2004 7.8 9.2852V9.8H8.2V9.2852C8.4592 9.2004 8.648 8.9592 8.648 8.672C8.648 8.3146 8.3574 8.024 8 8.024ZM6.2 7.6H9.8V8.2H9.2V8.6H9.8V9.2H9.2V9.6H9.8V10.2H6.2V7.6ZM9.1998 7.2H6.8V6.2002C6.8 5.9572 6.9286 5.7074 7.1526 5.515C7.3856 5.3148 7.6944 5.2 8.0002 5.2H8.0008C8.6286 5.2004 9.2002 5.6768 9.2 6.2L9.1998 7.2ZM9.5998 7.2L9.6 6.2002C9.6002 5.4546 8.853 4.8004 8.0008 4.8H8.0002C7.6002 4.8 7.1964 4.95 6.8918 5.2116C6.5794 5.4802 6.4002 5.8404 6.4 6.2V7.2H6C5.8894 7.2 5.8 7.2896 5.8 7.4V10.4C5.8 10.5104 5.8894 10.6 6 10.6H10C10.1106 10.6 10.2 10.5104 10.2 10.4V7.4C10.2 7.2896 10.1106 7.2 10 7.2H9.5998ZM4.1656 10.7754L3.8414 11.0098C3.2448 10.1852 2.9164 9.2172 2.8792 8.2H2.4V7.8H2.8798C2.9198 6.7884 3.2478 5.8256 3.8414 5.005L4.1656 5.2396C3.6216 5.9914 3.3196 6.8732 3.2798 7.8H3.8V8.2H3.2792C3.3162 9.1324 3.6186 10.0194 4.1656 10.7754ZM8.2 12.7278C9.1296 12.6892 10.0138 12.3872 10.7676 11.8416L11.002 12.1656C10.1796 12.761 9.2144 13.089 8.2 13.1278V13.6H7.8V13.1278C6.7856 13.089 5.82 12.761 4.9976 12.1656L5.2318 11.8416C5.986 12.3874 6.8704 12.6894 7.8 12.7278V12.2H8.2V12.7278ZM7.8 3.2872C6.8704 3.3256 5.986 3.6276 5.2318 4.1732L4.9976 3.8492C5.82 3.2538 6.7856 2.9258 7.8 2.8872V2.4H8.2V2.8872C9.2144 2.926 10.1796 3.254 11.002 3.8492L10.7676 4.1732C10.0138 3.6276 9.1296 3.3256 8.2 3.2872V3.8H7.8V3.2872ZM12.158 5.005C12.7518 5.8256 13.0798 6.7884 13.1198 7.8H13.6V8.2H13.1204C13.083 9.2172 12.7548 10.1852 12.158 11.0098L11.8338 10.7754C12.381 10.0194 12.6832 9.1324 12.7204 8.2H12.2V7.8H12.7198C12.68 6.8732 12.378 5.9914 11.8338 5.2396L12.158 5.005ZM12.8452 3.4448L11.2772 5.0128L10.9944 4.73L12.5624 3.162L12.8452 3.4448ZM3.1544 12.57L4.7224 11.002L5.0052 11.2848L3.4372 12.8528L3.1544 12.57ZM2.765 2.4826L5.7332 5.4506L5.4504 5.7334L2.4822 2.7654L2.765 2.4826ZM13.5172 13.2346L10.8386 10.556L10.5558 10.8388L13.2344 13.5174L13.5172 13.2346Z" fill="#E8E8E8"/>
</svg>
