<svg width="16" height="16" viewBox="0 0 16 16" fill="none" xmlns="http://www.w3.org/2000/svg">
<path fill-rule="evenodd" clip-rule="evenodd" d="M0 0H16V16H0V0ZM4.9414 4.6586L3.0828 2.8H4.6V2.4H2.6C2.4894 2.4 2.4 2.4896 2.4 2.6V4.6H2.8V3.0828L4.6586 4.9414L4.9414 4.6586ZM13.6 4.6V2.6C13.6 2.4896 13.5106 2.4 13.4 2.4H11.4V2.8H12.9172L11.0586 4.6586L11.3414 4.9414L13.2 3.0828V4.6H13.6ZM13.6 13.4V11.4H13.2V12.9172L11.3414 11.0586L11.0586 11.3414L12.9172 13.2H11.4V13.6H13.4C13.5106 13.6 13.6 13.5104 13.6 13.4ZM11.05 6.0884C12.3336 6.523 13.1 7.1788 13.1 7.8426C13.1 8.5068 12.3336 9.1624 11.0498 9.5968L11.178 9.9758C12.6536 9.4766 13.5 8.699 13.5 7.8426C13.5 6.9864 12.6536 6.209 11.1782 5.7096L11.05 6.0884ZM4.8304 9.5506C3.6286 9.117 2.9112 8.4786 2.9112 7.8426C2.9112 7.2068 3.6286 6.5684 4.8304 6.1346L4.6946 5.7584C3.307 6.2592 2.5112 7.0188 2.5112 7.8426C2.5112 8.6666 3.307 9.4262 4.6946 9.9268L4.8304 9.5506ZM3.0828 13.2L4.9414 11.3414L4.6586 11.0586L2.8 12.9172V11.4H2.4V13.4C2.4 13.5104 2.4894 13.6 2.6 13.6H4.6V13.2H3.0828ZM5.8 5.7372C5.8 5.888 6.5708 6.2572 8 6.2572C9.429 6.2572 10.2 5.888 10.2 5.7372C10.2 5.5862 9.429 5.2172 8 5.2172C6.5708 5.2172 5.8 5.5862 5.8 5.7372ZM5.8 7.229C5.8 7.4324 6.6374 7.8062 8.0058 7.8062C9.367 7.8062 10.2 7.4326 10.2 7.229V6.2568C9.7074 6.5286 8.8336 6.6572 8 6.6572C7.1664 6.6572 6.2926 6.5286 5.8 6.2568V7.229ZM5.8 8.7562C5.8 8.9596 6.6374 9.3334 8.0058 9.3334C9.367 9.3334 10.2 8.9598 10.2 8.7562V7.7734C9.7156 8.0584 8.8584 8.2062 8.0058 8.2062C7.1484 8.2062 6.2862 8.0582 5.8 7.7724V8.7562ZM5.8 10.1244C5.8 10.321 6.5766 10.7036 8 10.7036C9.4234 10.7036 10.2 10.321 10.2 10.1244V9.3006C9.7156 9.5858 8.8584 9.7334 8.0058 9.7334C7.1484 9.7334 6.2862 9.5854 5.8 9.2996V10.1244ZM5.4 5.7372C5.4 5.105 6.7478 4.8172 8 4.8172C9.2522 4.8172 10.6 5.105 10.6 5.7372V10.1244C10.6 10.7672 9.292 11.1036 8 11.1036C6.708 11.1036 5.4 10.7672 5.4 10.1244V5.7372Z" fill="url(#paint0_linear_2685_32143)"/>
<defs>
<linearGradient id="paint0_linear_2685_32143" x1="0" y1="0" x2="17.347" y2="1.62554" gradientUnits="userSpaceOnUse">
<stop stop-color="#00828B"/>
<stop offset="1" stop-color="#65BFAD"/>
</linearGradient>
</defs>
</svg>
