<svg width="16" height="16" viewBox="0 0 16 16" fill="none" xmlns="http://www.w3.org/2000/svg">
<path fill-rule="evenodd" clip-rule="evenodd" d="M0 0H16V16H0V0ZM8.78027 8.8H12.9661L13.3413 7.4H9.15547L8.78027 8.8ZM13.6021 7C13.6641 7 13.7229 7.029 13.7607 7.0782C13.7985 7.1276 13.8115 7.1916 13.7953 7.2518L13.3127 9.0518C13.2893 9.1392 13.2101 9.2 13.1197 9.2H8.51967C8.45747 9.2 8.39867 9.171 8.36107 9.1218C8.32307 9.0724 8.31027 9.0084 8.32647 8.9482L8.80887 7.1482C8.83227 7.0608 8.91167 7 9.00207 7H13.6021ZM7.96087 13.2C8.34667 13.2 8.66087 12.886 8.66087 12.5C8.66087 12.114 8.34667 11.8 7.96087 11.8C7.57487 11.8 7.26087 12.114 7.26087 12.5C7.26087 12.886 7.57487 13.2 7.96087 13.2ZM6.46107 8.6H2.87507L2.66067 9.4H6.24647L6.46107 8.6ZM6.46107 6.6H2.87507L2.66067 7.4H6.24647L6.46107 6.6ZM7.96087 2.8C7.57487 2.8 7.26087 3.114 7.26087 3.5C7.26087 3.886 7.57487 4.2 7.96087 4.2C8.34667 4.2 8.66087 3.886 8.66087 3.5C8.66087 3.114 8.34667 2.8 7.96087 2.8ZM4.76087 10.6H11.1609V9.8054H11.5609V10.8C11.5609 10.9104 11.4713 11 11.3609 11H8.16087V11.4192C8.67187 11.5136 9.06087 11.9618 9.06087 12.5C9.06087 13.1066 8.56727 13.6 7.96087 13.6C7.35427 13.6 6.86087 13.1066 6.86087 12.5C6.86087 11.9618 7.24967 11.5136 7.76087 11.4192V11H4.56087C4.45027 11 4.36087 10.9104 4.36087 10.8V9.8H2.40007C2.33787 9.8 2.27907 9.771 2.24147 9.7218C2.20347 9.6724 2.19067 9.6084 2.20687 9.5482L2.52847 8.3482C2.55187 8.2608 2.63107 8.2 2.72147 8.2H4.36087V7.8H2.40007C2.33787 7.8 2.27907 7.771 2.24147 7.7218C2.20347 7.6724 2.19067 7.6084 2.20687 7.5482L2.52847 6.3482C2.55187 6.2608 2.63107 6.2 2.72147 6.2H4.36087V5.4C4.36087 5.2896 4.45027 5.2 4.56087 5.2H7.76087V4.5808C7.24967 4.4864 6.86087 4.0382 6.86087 3.5C6.86087 2.8934 7.35427 2.4 7.96087 2.4C8.56727 2.4 9.06087 2.8934 9.06087 3.5C9.06087 4.0382 8.67187 4.4864 8.16087 4.5808V5.2H11.3609C11.4713 5.2 11.5609 5.2896 11.5609 5.4V6.4H11.1609V5.6H4.76087V6.2H6.72147C6.78367 6.2 6.84247 6.229 6.88007 6.2782C6.91807 6.3276 6.93087 6.3916 6.91467 6.4518L6.59327 7.6518C6.56987 7.7392 6.49047 7.8 6.40007 7.8H4.76087V8.2H6.72147C6.78367 8.2 6.84247 8.229 6.88007 8.2782C6.91807 8.3276 6.93087 8.3916 6.91467 8.4518L6.59327 9.6518C6.56987 9.7392 6.49047 9.8 6.40007 9.8H4.76087V10.6Z" fill="url(#paint0_linear_2685_32144)"/>
<defs>
<linearGradient id="paint0_linear_2685_32144" x1="0" y1="0" x2="17.347" y2="1.62554" gradientUnits="userSpaceOnUse">
<stop stop-color="#00828B"/>
<stop offset="1" stop-color="#65BFAD"/>
</linearGradient>
</defs>
</svg>
