<svg width="16" height="16" viewBox="0 0 16 16" fill="none" xmlns="http://www.w3.org/2000/svg">
<path fill-rule="evenodd" clip-rule="evenodd" d="M0 0H16V16H0V0ZM12.244 8.03772L12.1672 8.57852C12.8392 8.74372 12.96 8.64292 12.9612 8.64192C12.9614 8.63712 12.9522 8.46192 12.244 8.03772ZM8.16018 6.99212C8.84998 7.31812 10.5546 8.10012 11.7786 8.47052L12.2882 4.87472C11.4046 5.47992 9.51118 5.79992 7.69998 5.79992C5.88598 5.79992 3.98938 5.47872 3.10758 4.87172L4.12638 12.3131C4.12758 12.3221 4.12818 12.3311 4.12818 12.3403C4.12818 12.6433 5.48378 13.1999 7.69878 13.1999C9.89058 13.1999 11.232 12.6433 11.232 12.3403C11.232 12.3309 11.2326 12.3215 11.234 12.3121L11.7216 8.87092C10.4886 8.50692 8.79718 7.73632 7.98558 7.35212C7.90218 7.42112 7.79658 7.46452 7.68018 7.46452C7.41538 7.46452 7.19978 7.24892 7.19978 6.98392C7.19978 6.71892 7.41538 6.50332 7.68018 6.50332C7.94538 6.50332 8.16098 6.71892 8.16098 6.98392C8.16098 6.98532 8.16078 6.98667 8.16058 6.98802C8.16038 6.98937 8.16018 6.99072 8.16018 6.99212ZM7.69998 2.79992C4.52678 2.79992 3.01438 3.83232 2.99998 4.09552V4.18252C3.16858 4.77352 5.12958 5.39992 7.69998 5.39992C10.266 5.39992 12.226 4.77552 12.4 4.18532V4.09552C12.3854 3.83212 10.8728 2.79992 7.69998 2.79992ZM7.69998 2.39992C10.8132 2.39992 12.8 3.40692 12.8 4.09992L12.7796 4.25852L12.3044 7.61092C12.9736 7.99272 13.3022 8.29112 13.354 8.56792C13.3768 8.69012 13.3464 8.80492 13.2668 8.89972C13.1698 9.01532 13.0098 9.07312 12.7732 9.07312C12.597 9.07312 12.3776 9.04052 12.111 8.97672L11.6318 12.3561C11.6058 13.1643 9.59318 13.5999 7.69878 13.5999C6.17218 13.5999 3.75498 13.2619 3.72838 12.3555L2.61878 4.25072L2.59998 4.09992C2.59998 3.40692 4.58678 2.39992 7.69998 2.39992Z" fill="#E8E8E8"/>
</svg>
