<svg width="16" height="16" viewBox="0 0 16 16" fill="none" xmlns="http://www.w3.org/2000/svg">
<path fill-rule="evenodd" clip-rule="evenodd" d="M16 0H0V16H16V0ZM5.56201 3.49365C7.55322 1.50244 10.7817 1.50244 12.7729 3.49365L11.8716 4.39502C10.3779 2.90161 7.95703 2.90161 6.46338 4.39502C4.97021 5.88818 4.97021 8.30957 6.46338 9.80273C6.96143 10.3008 7.76855 10.3008 8.2666 9.80298C8.76416 9.30518 8.76416 8.49805 8.2666 8.00024L9.16797 7.09888C10.1631 8.09448 10.1631 9.70874 9.16797 10.7043C8.17236 11.6997 6.55811 11.6997 5.56201 10.7041C3.57129 8.71289 3.57129 5.48462 5.56201 3.49365ZM3.75977 12.5068C5.75098 14.498 8.979 14.498 10.9702 12.5068C12.9614 10.5156 12.9614 7.28735 10.9702 5.29639C9.97461 4.30054 8.36035 4.30054 7.36475 5.29614C6.36914 6.29175 6.36914 7.90576 7.36475 8.90137L8.2666 8.00024C7.76904 7.50269 7.76855 6.69531 8.26611 6.19751C8.54004 5.92334 8.90771 5.80029 9.26611 5.82788C9.55908 5.85059 9.84521 5.97388 10.0688 6.19751C11.5625 7.69092 11.5625 10.1123 10.0688 11.6055C8.57568 13.0989 6.1543 13.0989 4.66113 11.6055L3.75977 12.5068Z" fill="#E8E8E8"/>
</svg>
