<svg width="22" height="22" viewBox="0 0 22 22" fill="none" xmlns="http://www.w3.org/2000/svg">
  <path
    d="M10.5622 15.062C10.5622 14.684 10.8842 14.376 11.2482 14.376C11.6402 14.376 11.9342 14.684 11.9342 15.062V15.314C11.9342 15.706 11.6402 16 11.2482 16C10.8842 16 10.5622 15.706 10.5622 15.314V15.062Z"
    fill="url(#paint0_linear)"
  />
  <path
    d="M11.2482 6.19995C12.8722 6.19995 14.2022 7.51595 14.2022 9.13995C14.2022 10.526 13.2362 11.688 11.9342 11.996V12.906C11.9342 13.298 11.6402 13.592 11.2482 13.592C10.8842 13.592 10.5622 13.298 10.5622 12.906V11.45C10.5622 11.443 10.5657 11.4395 10.5692 11.436C10.5727 11.4325 10.5762 11.429 10.5762 11.422C10.5622 11.408 10.5622 11.408 10.5622 11.394C10.5622 11.03 10.8842 10.708 11.2482 10.708C12.1302 10.708 12.8442 10.008 12.8442 9.13995C12.8442 8.25795 12.1302 7.57195 11.2482 7.57195C10.6742 7.57195 10.1702 7.87995 9.90416 8.34195C9.70816 8.67795 9.28816 8.78995 8.95216 8.59395C8.63016 8.39795 8.51816 7.99195 8.71416 7.65595C9.21816 6.78795 10.1702 6.19995 11.2482 6.19995Z"
    fill="url(#paint1_linear)"
  />
  <path
    fill-rule="evenodd"
    clip-rule="evenodd"
    d="M22 11C22 17.0751 17.0751 22 11 22C4.92487 22 0 17.0751 0 11C0 4.92487 4.92487 0 11 0C17.0751 0 22 4.92487 22 11ZM20.5 11C20.5 16.2467 16.2467 20.5 11 20.5C5.75329 20.5 1.5 16.2467 1.5 11C1.5 5.75329 5.75329 1.5 11 1.5C16.2467 1.5 20.5 5.75329 20.5 11Z"
    fill="url(#paint2_linear)"
  />
  <defs>
    <linearGradient id="paint0_linear" x1="0" y1="0" x2="23.8521" y2="2.23511" gradientUnits="userSpaceOnUse">
      <stop stop-color="rgba(255,255,255,0.87)" />
      <stop offset="1" stop-color="rgba(255,255,255,0.87)" />
    </linearGradient>
    <linearGradient id="paint1_linear" x1="0" y1="0" x2="23.8521" y2="2.23511" gradientUnits="userSpaceOnUse">
      <stop stop-color="rgba(255,255,255,0.87)" />
      <stop offset="1" stop-color="rgba(255,255,255,0.87)" />
    </linearGradient>
    <linearGradient id="paint2_linear" x1="0" y1="0" x2="23.8521" y2="2.23511" gradientUnits="userSpaceOnUse">
      <stop stop-color="rgba(255,255,255,0.87)" />
      <stop offset="1" stop-color="rgba(255,255,255,0.87)" />
    </linearGradient>
  </defs>
</svg>
