<svg xmlns="http://www.w3.org/2000/svg" fill="rgba(255,255,255,0.87)" viewBox="0 0 24 24" id="typescript">
  <path fill="rgba(255,255,255,0.87)"
    d="M23.25,24H0.75C0.336,24,0,23.664,0,23.25V0.75C0,0.336,0.336,0,0.75,0h22.5C23.664,0,24,0.336,24,0.75v22.5C24,23.664,23.664,24,23.25,24z M1.5,22.5h21v-21h-21V22.5z">
  </path>
  <path fill="rgba(255,255,255,0.87)"
    d="M13.232,12.5h-7.5c-0.414,0-0.75-0.336-0.75-0.75S5.318,11,5.732,11h7.5c0.414,0,0.75,0.336,0.75,0.75S13.646,12.5,13.232,12.5z">
  </path>
  <path fill="rgba(255,255,255,0.87)"
    d="M9.482 22c-.414 0-.75-.336-.75-.75v-9.436c0-.414.336-.75.75-.75s.75.336.75.75v9.436C10.232 21.664 9.896 22 9.482 22zM18.25 22c-1.289 0-2.469-.602-3.08-1.569-.221-.351-.116-.813.234-1.035.349-.22.813-.116 1.034.234.333.528 1.044.87 1.811.87 1.084 0 2-.687 2-1.5 0-.736-.746-1.336-2.218-1.782C15.916 16.575 14.75 15.433 14.75 14c0-1.654 1.57-3 3.5-3 .677 0 1.334.165 1.9.478.363.199.495.656.294 1.019-.199.363-.656.495-1.019.294-.344-.189-.751-.29-1.175-.29-1.084 0-2 .687-2 1.5 0 .965 1.39 1.531 2.218 1.782 2.713.823 3.282 2.204 3.282 3.218C21.75 20.654 20.18 22 18.25 22z">
  </path>
</svg>
