<?xml version="1.0" encoding="UTF-8"?>
<svg width="100%" height="100%" color="white" version="1.1" viewBox="0 0 700 700" fill="rgba(255,255,255,0.87)"
  xmlns="http://www.w3.org/2000/svg">
  <g>
    <path fill="rgba(255,255,255,0.87)"
      d="m218.2 93.516h207.88c17.133 0 32.707 7.0039 43.992 18.289 11.285 11.285 18.289 26.859 18.289 43.992v197.15h-276.72v-259.43zm207.88 13.125h-201.31v233.18h250.47v-184.02c0-13.512-5.5312-25.801-14.445-34.711-8.9141-8.9141-21.199-14.445-34.711-14.445z" />
    <path d="m523.8 466.48h-354.16v-126.66h360.72v126.66zm-341.04-13.125h334.47v-100.41h-334.47z"
      fill="rgba(255,255,255,0.87)" />
    <path d="m258 173.25h184v13.125h-184z" fill="rgba(255,255,255,0.87)" />
    <path d="m258 219.39h184v13.125h-184z" fill="rgba(255,255,255,0.87)" />
    <path d="m258 265.54h184v13.125h-184z" fill="rgba(255,255,255,0.87)" />
    <path fill="rgba(255,255,255,0.87)"
      d="m205.19 369.1h23.375l13.75 22.992 13.75-22.992h23.23l-26.484 39.582v28.527h-21.09v-28.527zm113.83 56.867h-23.977l-3.2969 11.242h-21.504l25.594-68.109h22.945l25.609 68.109h-22.027l-3.3477-11.242zm-4.4102-14.73-7.5312-24.484-7.4844 24.484zm36.281-42.133h27.688l10.688 41.438 10.641-41.438h27.594v68.109h-17.191v-51.934l-13.336 51.934h-15.555l-13.289-51.934v51.934h-17.238zm90.023 0h21.059v51.332h32.84v16.777h-53.902v-68.109z" />
  </g>
</svg>
