<svg width="250" height="250" viewBox="0 0 250 250" fill="none" xmlns="http://www.w3.org/2000/svg">
<path d="M234 124.947C234 110.505 215.915 96.8192 188.187 88.332C194.586 60.0711 191.742 37.5868 179.211 30.3883C176.323 28.6997 172.946 27.8999 169.258 27.8999V37.809C171.302 37.809 172.946 38.2089 174.323 38.9643C180.366 42.4303 182.988 55.6276 180.944 72.6019C180.455 76.7788 179.656 81.1779 178.678 85.6659C169.969 83.533 160.459 81.8889 150.461 80.8224C144.463 72.6019 138.242 65.1368 131.976 58.6048C146.462 45.1408 160.06 37.7646 169.302 37.7646V27.8555C157.082 27.8555 141.086 36.5648 124.911 51.6728C108.737 36.6537 92.7399 28.0332 80.5202 28.0332V37.9423C89.7183 37.9423 103.36 45.2741 117.846 58.6492C111.625 65.1812 105.404 72.6019 99.4941 80.8224C89.4517 81.8889 79.9425 83.533 71.2332 85.7103C70.2112 81.2668 69.4558 76.9566 68.9225 72.8241C66.8341 55.8498 69.4113 42.6525 75.4101 39.1421C76.7432 38.3422 78.4762 37.9867 80.5202 37.9867V28.0776C76.7876 28.0776 73.4105 28.8775 70.4778 30.566C57.9914 37.7646 55.192 60.2044 61.6351 88.3765C33.9963 96.9081 16 110.55 16 124.947C16 139.388 34.0852 153.074 61.8129 161.562C55.4142 189.822 58.2581 212.307 70.7888 219.505C73.6771 221.194 77.0542 221.994 80.7868 221.994C93.0065 221.994 109.003 213.284 125.178 198.176C141.352 213.195 157.349 221.816 169.569 221.816C173.301 221.816 176.678 221.016 179.611 219.328C192.097 212.129 194.897 189.689 188.454 161.517C216.004 153.03 234 139.344 234 124.947V124.947ZM176.145 95.3084C174.501 101.041 172.457 106.95 170.146 112.86C168.324 109.306 166.414 105.751 164.325 102.196C162.281 98.641 160.104 95.1751 157.927 91.798C164.236 92.7311 170.324 93.8864 176.145 95.3084ZM155.794 142.632C152.328 148.631 148.773 154.319 145.085 159.606C138.464 160.184 131.754 160.495 125 160.495C118.29 160.495 111.581 160.184 105.004 159.651C101.316 154.363 97.7167 148.72 94.2507 142.765C90.8736 136.944 87.8076 131.034 85.0082 125.08C87.7632 119.126 90.8736 113.171 94.2063 107.35C97.6722 101.352 101.227 95.6639 104.915 90.376C111.536 89.7984 118.246 89.4873 125 89.4873C131.71 89.4873 138.419 89.7984 144.996 90.3316C148.684 95.6194 152.283 101.263 155.749 107.217C159.126 113.038 162.192 118.948 164.992 124.902C162.192 130.857 159.126 136.811 155.794 142.632ZM170.146 136.855C172.546 142.81 174.59 148.764 176.278 154.541C170.457 155.963 164.325 157.162 157.971 158.096C160.148 154.674 162.326 151.164 164.37 147.564C166.414 144.01 168.324 140.41 170.146 136.855ZM125.089 184.268C120.956 180.002 116.824 175.248 112.736 170.049C116.735 170.226 120.823 170.36 124.956 170.36C129.132 170.36 133.265 170.271 137.309 170.049C133.309 175.248 129.177 180.002 125.089 184.268ZM92.0289 158.096C85.7191 157.162 79.6315 156.007 73.8104 154.585C75.4545 148.853 77.4986 142.943 79.8092 137.033C81.6311 140.588 83.5418 144.143 85.6303 147.698C87.7187 151.253 89.8516 154.718 92.0289 158.096ZM124.867 65.6255C128.999 69.8913 133.132 74.6459 137.22 79.8449C133.221 79.6671 129.132 79.5338 125 79.5338C120.823 79.5338 116.691 79.6227 112.647 79.8449C116.646 74.6459 120.779 69.8913 124.867 65.6255ZM91.9845 91.798C89.8072 95.2195 87.6298 98.7299 85.5858 102.329C83.5418 105.884 81.6311 109.439 79.8092 112.994C77.4097 107.039 75.3657 101.085 73.6771 95.3084C79.4982 93.9309 85.6303 92.7311 91.9845 91.798V91.798ZM51.7705 147.431C36.0404 140.721 25.8647 131.923 25.8647 124.947C25.8647 117.97 36.0404 109.128 51.7705 102.462C55.5919 100.818 59.7689 99.352 64.0791 97.9745C66.6119 106.684 69.9446 115.749 74.0771 125.036C69.989 134.278 66.7008 143.299 64.2124 151.963C59.8133 150.586 55.6364 149.075 51.7705 147.431ZM75.6767 210.929C69.6335 207.463 67.0118 194.266 69.0559 177.292C69.5446 173.115 70.3445 168.716 71.3221 164.228C80.0314 166.361 89.5406 168.005 99.5385 169.071C105.537 177.292 111.758 184.757 118.024 191.289C103.538 204.753 89.9405 212.129 80.6979 212.129C78.6983 212.085 77.0098 211.685 75.6767 210.929V210.929ZM181.077 177.069C183.166 194.044 180.589 207.241 174.59 210.752C173.257 211.551 171.524 211.907 169.48 211.907C160.282 211.907 146.64 204.575 132.154 191.2C138.375 184.668 144.596 177.247 150.506 169.027C160.548 167.96 170.057 166.316 178.767 164.139C179.789 168.627 180.589 172.937 181.077 177.069V177.069ZM198.185 147.431C194.364 149.075 190.187 150.542 185.876 151.919C183.344 143.21 180.011 134.145 175.879 124.858C179.967 115.615 183.255 106.595 185.743 97.9301C190.142 99.3076 194.319 100.818 198.23 102.462C213.96 109.172 224.135 117.97 224.135 124.947C224.091 131.923 213.915 140.766 198.185 147.431V147.431Z" fill="#61DAFB"/>
<path d="M124.955 145.254C136.171 145.254 145.262 136.162 145.262 124.947C145.262 113.731 136.171 104.64 124.955 104.64C113.74 104.64 104.648 113.731 104.648 124.947C104.648 136.162 113.74 145.254 124.955 145.254Z" fill="#61DAFB"/>
</svg>
