<svg width="64" height="64" viewBox="0 0 64 64" fill="none" xmlns="http://www.w3.org/2000/svg">
<path fill-rule="evenodd" clip-rule="evenodd" d="M46.8276 8.07669C40.3978 4.10835 32.34 3.01883 25.0493 4.88856V4.88878C14.0592 7.61937 5.3421 17.5735 4.22591 28.8597C2.84017 39.5405 8.23447 50.6651 17.4758 56.1805C26.5424 61.8572 38.8239 61.6283 47.7021 55.6558C55.679 50.4769 60.6428 41.0336 60.3468 31.5098C60.2124 22.0801 54.9256 12.9194 46.8276 8.07669ZM56.0287 28.9403C54.603 14.1701 37.7074 3.987 23.9327 9.50241C14.113 12.9461 7.25249 23.2771 8.20757 33.6889C8.57067 46.5485 20.9463 57.4044 33.7524 56.1265C47.2178 55.7363 58.2484 42.2306 56.0287 28.9403Z" fill="white"/>
<path d="M25.3182 30.7161C31.4927 25.6716 37.5325 20.4522 43.8415 15.5557C40.5322 20.6406 37.129 25.6581 33.8197 30.7428C30.9814 30.7564 28.1432 30.7564 25.3182 30.7159V30.7161ZM30.5376 33.5274C33.3893 33.5274 36.2277 33.5274 39.066 33.5678C32.8513 38.5853 26.8384 43.8449 20.5159 48.7281C23.8251 43.6431 27.2284 38.6124 30.5376 33.5274Z" fill="white"/>
</svg>
