<svg width="250" height="250" viewBox="0 0 250 250" fill="none" xmlns="http://www.w3.org/2000/svg">
<path d="M0 125V0H250V250H0" fill="#007ACC"/>
<path d="M54.8125 125.438V135.625H87.3125V228.125H110.375V135.625H142.875V125.625C142.875 120 142.875 115.438 142.625 115.313C142.625 115.125 122.813 115.063 98.75 115.063L55 115.25V125.5L54.8125 125.438V125.438ZM200.875 115C207.25 116.5 212.125 119.375 216.5 123.938C218.813 126.438 222.25 130.813 222.5 131.938C222.5 132.313 211.688 139.625 205.125 143.688C204.875 143.875 203.875 142.813 202.875 141.188C199.625 136.563 196.312 134.563 191.125 134.188C183.625 133.688 178.625 137.625 178.625 144.188C178.625 146.188 179 147.313 179.75 148.938C181.438 152.375 184.562 154.438 194.25 158.688C212.125 166.375 219.875 171.438 224.562 178.688C229.875 186.813 231.062 199.563 227.5 209.125C223.5 219.563 213.75 226.625 199.813 228.938C195.438 229.688 185.438 229.563 180.75 228.75C170.75 226.875 161.188 221.875 155.313 215.438C153 212.938 148.563 206.25 148.813 205.813L151.187 204.313L160.562 198.875L167.625 194.75L169.25 196.938C171.312 200.188 175.937 204.563 178.625 206.063C186.75 210.25 197.625 209.688 203 204.813C205.312 202.688 206.313 200.438 206.313 197.313C206.313 194.438 205.875 193.125 204.438 190.938C202.438 188.188 198.438 185.938 187.188 180.938C174.25 175.438 168.75 171.938 163.625 166.563C160.687 163.313 158 158.25 156.75 154.063C155.813 150.438 155.5 141.563 156.375 138C159.063 125.5 168.5 116.75 182 114.25C186.375 113.375 196.688 113.75 201 114.875L200.875 115V115Z" fill="white"/>
</svg>
