<svg width="250" height="250" viewBox="0 0 250 250" fill="none" xmlns="http://www.w3.org/2000/svg">
<path d="M124.275 14.6069L130.207 25.7484C131.54 27.8044 132.985 29.6242 134.687 31.3191C139.676 36.2461 144.327 41.5046 148.607 47.0588C158.658 60.2562 165.437 74.9124 170.278 90.7632C173.182 100.446 174.759 110.379 174.877 120.423C175.363 150.45 165.069 176.234 144.314 197.663C140.938 201.061 137.291 204.178 133.409 206.984C131.353 206.984 130.38 205.407 129.533 203.956C127.99 201.264 126.963 198.307 126.504 195.238C125.775 191.606 125.296 187.973 125.532 184.222V182.527C125.365 182.166 123.552 15.4613 124.275 14.6069V14.6069Z" fill="#599636"/>
<path d="M124.274 14.239C124.031 13.7527 123.788 14.1209 123.545 14.357C123.663 16.7882 122.815 18.9553 121.489 21.0252C120.03 23.0813 118.099 24.658 116.161 26.3528C105.395 35.6744 96.9205 46.9339 90.1342 59.5271C81.1043 76.4754 76.4505 94.6393 75.1308 113.762C74.5265 120.659 77.3118 144.998 79.4859 152.02C85.4178 170.664 96.073 186.285 109.875 199.844C113.264 203.108 116.89 206.137 120.641 209.047C121.732 209.047 121.85 208.075 122.1 207.352C122.578 205.807 122.942 204.228 123.19 202.629L125.621 184.472L124.274 14.239Z" fill="#6CAC48"/>
<path d="M130.205 214.361C130.448 211.583 131.782 209.277 133.234 206.977C131.775 206.373 130.692 205.171 129.844 203.831C129.113 202.562 128.509 201.224 128.038 199.837C126.343 194.752 125.982 189.418 125.496 184.222V181.076C124.892 181.562 124.767 185.674 124.767 186.285C124.413 191.777 123.684 197.237 122.586 202.629C122.224 204.81 121.981 206.984 120.641 208.922C120.641 209.165 120.641 209.409 120.759 209.77C122.94 216.188 123.537 222.724 123.905 229.385V231.816C123.905 234.72 123.787 234.109 126.197 235.081C127.17 235.442 128.253 235.567 129.226 236.29C129.955 236.29 130.073 235.685 130.073 235.199L129.712 231.205V220.064C129.594 218.119 129.955 216.188 130.198 214.368L130.205 214.361Z" fill="#C2BFBF"/>
</svg>
