<?xml version="1.0" encoding="utf-8"?>
<!-- Generator: Adobe Illustrator 23.0.0, SVG Export Plug-In . SVG Version: 6.00 Build 0)  -->
<!DOCTYPE svg PUBLIC "-//W3C//DTD SVG 1.1//EN" "http://www.w3.org/Graphics/SVG/1.1/DTD/svg11.dtd" [
	<!ENTITY ns_extend "http://ns.adobe.com/Extensibility/1.0/">
	<!ENTITY ns_ai "http://ns.adobe.com/AdobeIllustrator/10.0/">
	<!ENTITY ns_graphs "http://ns.adobe.com/Graphs/1.0/">
	<!ENTITY ns_vars "http://ns.adobe.com/Variables/1.0/">
	<!ENTITY ns_imrep "http://ns.adobe.com/ImageReplacement/1.0/">
	<!ENTITY ns_sfw "http://ns.adobe.com/SaveForWeb/1.0/">
	<!ENTITY ns_custom "http://ns.adobe.com/GenericCustomNamespace/1.0/">
	<!ENTITY ns_adobe_xpath "http://ns.adobe.com/XPath/1.0/">
]>
<svg version="1.1" id="Layer_2" xmlns:x="&ns_extend;" xmlns:i="&ns_ai;" xmlns:graph="&ns_graphs;"
	 xmlns="http://www.w3.org/2000/svg" xmlns:xlink="http://www.w3.org/1999/xlink" x="0px" y="0px" viewBox="12 12 82 82"
	 enable-background="new 0 0 100 100" xml:space="preserve">
<metadata>
	<sfw  xmlns="&ns_sfw;">
		<slices></slices>
		<sliceSourceBounds  bottomLeftOrigin="true" height="401.803" width="974.019" x="1745.277" y="-945.03"></sliceSourceBounds>
	</sfw>
</metadata>
<g>
	<linearGradient id="SVGID_1_" gradientUnits="userSpaceOnUse" x1="49.1992" y1="29.2946" x2="51.6065" y2="75.2356">
		<stop  offset="0" style="stop-color:#70C8B6"/>
		<stop  offset="0.3085" style="stop-color:#6DC4B5"/>
		<stop  offset="0.5255" style="stop-color:#64BDB2"/>
		<stop  offset="0.7145" style="stop-color:#52B2AD"/>
		<stop  offset="0.8865" style="stop-color:#34A3A6"/>
		<stop  offset="1" style="stop-color:#0097A1"/>
	</linearGradient>
	<path fill="url(#SVGID_1_)" d="M79.921,35.666L73.799,68.91L39.858,80.242c-0.501,0.173-1.061-0.012-1.371-0.441L20.419,54.753
		c-0.036-0.042-0.072-0.095-0.101-0.143c-0.167-0.25-0.262-0.548-0.262-0.87c0-0.077,0.006-0.155,0.018-0.232l2.7-0.9l33.209-11.093
		l22.252-7.433C79.164,33.77,80.106,34.653,79.921,35.666z"/>
	<linearGradient id="SVGID_2_" gradientUnits="userSpaceOnUse" x1="35.2481" y1="12.4424" x2="38.0853" y2="48.2392">
		<stop  offset="0" style="stop-color:#70C8B6"/>
		<stop  offset="0.3085" style="stop-color:#6DC4B5"/>
		<stop  offset="0.5255" style="stop-color:#64BDB2"/>
		<stop  offset="0.7145" style="stop-color:#52B2AD"/>
		<stop  offset="0.8865" style="stop-color:#34A3A6"/>
		<stop  offset="1" style="stop-color:#0097A1"/>
	</linearGradient>
	<path fill="url(#SVGID_2_)" d="M55.982,41.514L22.773,52.607l-2.7,0.9c0.036-0.244,0.125-0.465,0.256-0.662
		c0.006-0.006,0.012-0.018,0.024-0.03l0.197-0.227l31.361-36.32c0.566-0.656,1.639-0.256,1.723,0.644L55.982,41.514z"/>

		<linearGradient id="SVGID_3_" gradientUnits="userSpaceOnUse" x1="11.9325" y1="250.3188" x2="12.5221" y2="241.2032" gradientTransform="matrix(0.9295 -0.1614 0.1873 0.9812 9.8433 -161.8129)">
		<stop  offset="0" style="stop-color:#70C8B6"/>
		<stop  offset="0.3085" style="stop-color:#6DC4B5"/>
		<stop  offset="0.5255" style="stop-color:#64BDB2"/>
		<stop  offset="0.7145" style="stop-color:#52B2AD"/>
		<stop  offset="0.8865" style="stop-color:#34A3A6"/>
		<stop  offset="1" style="stop-color:#0097A1"/>
	</linearGradient>
	<path fill="url(#SVGID_3_)" d="M73.799,68.91L62.252,83.609c-0.564,0.825-1.828,0.437-1.932-0.593l-0.92-9.298L73.799,68.91z"/>
	<linearGradient id="SVGID_4_" gradientUnits="userSpaceOnUse" x1="67.9205" y1="67.0771" x2="65.0526" y2="76.2827">
		<stop  offset="0" style="stop-color:#303030;stop-opacity:0.6"/>
		<stop  offset="0.2991" style="stop-color:#2F2F2E;stop-opacity:0.7196"/>
		<stop  offset="0.5095" style="stop-color:#2A2A2A;stop-opacity:0.8038"/>
		<stop  offset="0.6928" style="stop-color:#222323;stop-opacity:0.8771"/>
		<stop  offset="0.8595" style="stop-color:#151616;stop-opacity:0.9438"/>
		<stop  offset="1" style="stop-color:#000000"/>
	</linearGradient>
	<polygon opacity="0.25" fill="url(#SVGID_4_)" points="59.4,73.718 73.801,68.909 59.484,74.548 	"/>
	<linearGradient id="SVGID_5_" gradientUnits="userSpaceOnUse" x1="37.2533" y1="43.683" x2="38.2441" y2="47.9113">
		<stop  offset="0" style="stop-color:#303030;stop-opacity:0.6"/>
		<stop  offset="0.2991" style="stop-color:#2F2F2E;stop-opacity:0.7196"/>
		<stop  offset="0.5095" style="stop-color:#2A2A2A;stop-opacity:0.8038"/>
		<stop  offset="0.6928" style="stop-color:#222323;stop-opacity:0.8771"/>
		<stop  offset="0.8595" style="stop-color:#151616;stop-opacity:0.9438"/>
		<stop  offset="1" style="stop-color:#000000"/>
	</linearGradient>
	<polyline opacity="0.25" fill="url(#SVGID_5_)" points="55.982,41.514 55.814,39.748 20.073,53.507 	"/>
</g>
</svg>
