<svg width="273" height="49" viewBox="0 0 273 49" fill="none" xmlns="http://www.w3.org/2000/svg">
<path d="M63.5687 37.0882C61.7207 37.0882 59.9567 36.7762 58.2767 36.1522C56.6207 35.5042 55.3247 34.6762 54.3887 33.6682L55.2167 32.3002C56.1047 33.2362 57.2927 34.0042 58.7807 34.6042C60.2927 35.1802 61.8767 35.4682 63.5327 35.4682C65.9327 35.4682 67.7447 35.0122 68.9687 34.1002C70.1927 33.1882 70.8047 32.0002 70.8047 30.5362C70.8047 29.4082 70.4807 28.5082 69.8327 27.8362C69.1847 27.1642 68.3807 26.6482 67.4207 26.2882C66.4607 25.9282 65.1647 25.5562 63.5327 25.1722C61.6847 24.7162 60.1967 24.2722 59.0687 23.8402C57.9647 23.4082 57.0167 22.7482 56.2247 21.8602C55.4567 20.9482 55.0727 19.7362 55.0727 18.2242C55.0727 17.0002 55.3967 15.8842 56.0447 14.8762C56.6927 13.8442 57.6767 13.0282 58.9967 12.4282C60.3407 11.8282 62.0087 11.5282 64.0007 11.5282C65.3927 11.5282 66.7607 11.7322 68.1047 12.1402C69.4487 12.5482 70.6127 13.1002 71.5967 13.7962L70.9127 15.2722C69.9047 14.5762 68.7887 14.0482 67.5647 13.6882C66.3647 13.3282 65.1767 13.1482 64.0007 13.1482C61.6727 13.1482 59.9087 13.6162 58.7087 14.5522C57.5087 15.4882 56.9087 16.7002 56.9087 18.1882C56.9087 19.3162 57.2327 20.2162 57.8807 20.8882C58.5287 21.5602 59.3327 22.0762 60.2927 22.4362C61.2527 22.7962 62.5607 23.1802 64.2167 23.5882C66.0647 24.0442 67.5407 24.4882 68.6447 24.9202C69.7487 25.3522 70.6847 26.0122 71.4527 26.9002C72.2447 27.7642 72.6407 28.9402 72.6407 30.4282C72.6407 31.6522 72.3047 32.7682 71.6327 33.7762C70.9847 34.7842 69.9767 35.5882 68.6087 36.1882C67.2407 36.7882 65.5607 37.0882 63.5687 37.0882ZM83.3547 13.3642H74.2827V11.7082H94.2627V13.3642H85.1907V36.9082H83.3547V13.3642ZM113.138 29.8162H98.5222L95.3182 36.9082H93.3382L104.93 11.7082H106.766L118.358 36.9082H116.378L113.138 29.8162ZM112.454 28.2682L105.83 13.7242L99.2422 28.2682H112.454ZM133.237 37.0882C130.765 37.0882 128.533 36.5362 126.541 35.4322C124.573 34.3282 123.013 32.8042 121.861 30.8602C120.733 28.9162 120.169 26.7322 120.169 24.3082C120.169 21.8842 120.733 19.7002 121.861 17.7562C123.013 15.8122 124.573 14.2882 126.541 13.1842C128.533 12.0802 130.765 11.5282 133.237 11.5282C135.061 11.5282 136.741 11.8282 138.277 12.4282C139.813 13.0042 141.121 13.8682 142.201 15.0202L141.049 16.2082C139.033 14.2162 136.453 13.2202 133.309 13.2202C131.197 13.2202 129.277 13.7002 127.549 14.6602C125.821 15.6202 124.465 16.9522 123.481 18.6562C122.497 20.3362 122.005 22.2202 122.005 24.3082C122.005 26.3962 122.497 28.2922 123.481 29.9962C124.465 31.6762 125.821 32.9962 127.549 33.9562C129.277 34.9162 131.197 35.3962 133.309 35.3962C136.429 35.3962 139.009 34.3882 141.049 32.3722L142.201 33.5602C141.121 34.7122 139.801 35.5882 138.241 36.1882C136.705 36.7882 135.037 37.0882 133.237 37.0882ZM155.839 24.4882L150.187 30.2842V36.9082H148.351V11.7082H150.187V27.9082L165.919 11.7082H168.151L157.063 23.1562L168.907 36.9082H166.675L155.839 24.4882ZM177.116 13.3642H168.044V11.7082H188.024V13.3642H178.952V36.9082H177.116V13.3642ZM206.9 29.8162H192.284L189.08 36.9082H187.1L198.692 11.7082H200.528L212.12 36.9082H210.14L206.9 29.8162ZM206.216 28.2682L199.592 13.7242L193.004 28.2682H206.216ZM225.731 11.7082C228.899 11.7082 231.383 12.4642 233.183 13.9762C234.983 15.4642 235.883 17.5402 235.883 20.2042C235.883 22.8442 234.983 24.9202 233.183 26.4322C231.383 27.9202 228.899 28.6642 225.731 28.6642H218.531V36.9082H216.695V11.7082H225.731ZM225.731 27.0082C228.419 27.0082 230.471 26.4202 231.887 25.2442C233.303 24.0682 234.011 22.3882 234.011 20.2042C234.011 18.0202 233.303 16.3402 231.887 15.1642C230.471 13.9642 228.419 13.3642 225.731 13.3642H218.531V27.0082H225.731ZM259.466 35.2522V36.9082H242.078V11.7082H258.926V13.3642H243.914V23.3002H257.342V24.9202H243.914V35.2522H259.466Z" fill="#F4F4F5"/>
<path d="M41.7636 14.3985L37.4928 37.8262L13.8142 45.812C13.4647 45.934 13.0741 45.8036 12.8578 45.5013L0.253235 27.8495C0.22812 27.8199 0.203008 27.7825 0.182777 27.7487C0.0662745 27.5725 0 27.3625 0 27.1356C0 27.0813 0.0041868 27.0264 0.0125582 26.9721L1.89613 26.3378L25.0633 18.5204L40.5867 13.2822C41.2355 13.0624 41.8927 13.6839 41.7636 14.3985Z" fill="url(#paint0_linear)"/>
<path d="M25.0635 18.5195L1.89626 26.3376L0.0126953 26.9719C0.0378096 26.7999 0.099898 26.6442 0.191286 26.5054C0.195472 26.5011 0.199656 26.4927 0.208028 26.4842L0.345457 26.3242L22.2235 0.728862C22.6183 0.266567 23.3669 0.548453 23.4255 1.1827L25.0635 18.5195Z" fill="url(#paint1_linear)"/>
<path d="M37.493 37.8262L29.4369 48.1848C29.0434 48.7662 28.1616 48.4928 28.0891 47.7669L27.4473 41.2145L37.493 37.8262Z" fill="url(#paint2_linear)"/>
<path opacity="0.25" d="M27.4482 41.2152L37.4946 37.8262L27.5068 41.7994L27.4482 41.2152Z" fill="url(#paint3_linear)"/>
<path opacity="0.25" d="M25.0635 18.5192L24.9456 17.2754L0.0126953 26.9716" fill="url(#paint4_linear)"/>
<defs>
<linearGradient id="paint0_linear" x1="20.3313" y1="9.90818" x2="22.045" y2="42.2818" gradientUnits="userSpaceOnUse">
<stop stop-color="#70C8B6"/>
<stop offset="0.3085" stop-color="#6DC4B5"/>
<stop offset="0.5255" stop-color="#64BDB2"/>
<stop offset="0.7145" stop-color="#52B2AD"/>
<stop offset="0.8865" stop-color="#34A3A6"/>
<stop offset="1" stop-color="#0097A1"/>
</linearGradient>
<linearGradient id="paint1_linear" x1="10.5989" y1="-1.96739" x2="12.6184" y2="23.2561" gradientUnits="userSpaceOnUse">
<stop stop-color="#70C8B6"/>
<stop offset="0.3085" stop-color="#6DC4B5"/>
<stop offset="0.5255" stop-color="#64BDB2"/>
<stop offset="0.7145" stop-color="#52B2AD"/>
<stop offset="0.8865" stop-color="#34A3A6"/>
<stop offset="1" stop-color="#0097A1"/>
</linearGradient>
<linearGradient id="paint2_linear" x1="33.3208" y1="46.9623" x2="32.65" y2="40.5775" gradientUnits="userSpaceOnUse">
<stop stop-color="#70C8B6"/>
<stop offset="0.3085" stop-color="#6DC4B5"/>
<stop offset="0.5255" stop-color="#64BDB2"/>
<stop offset="0.7145" stop-color="#52B2AD"/>
<stop offset="0.8865" stop-color="#34A3A6"/>
<stop offset="1" stop-color="#0097A1"/>
</linearGradient>
<linearGradient id="paint3_linear" x1="33.3921" y1="36.5349" x2="31.3541" y2="43.0105" gradientUnits="userSpaceOnUse">
<stop stop-color="#303030" stop-opacity="0.6"/>
<stop offset="0.2991" stop-color="#2F2F2E" stop-opacity="0.7196"/>
<stop offset="0.5095" stop-color="#2A2A2A" stop-opacity="0.8038"/>
<stop offset="0.6928" stop-color="#222323" stop-opacity="0.8771"/>
<stop offset="0.8595" stop-color="#151616" stop-opacity="0.9438"/>
<stop offset="1"/>
</linearGradient>
<linearGradient id="paint4_linear" x1="11.9978" y1="20.0482" x2="12.7023" y2="23.0247" gradientUnits="userSpaceOnUse">
<stop stop-color="#303030" stop-opacity="0.6"/>
<stop offset="0.2991" stop-color="#2F2F2E" stop-opacity="0.7196"/>
<stop offset="0.5095" stop-color="#2A2A2A" stop-opacity="0.8038"/>
<stop offset="0.6928" stop-color="#222323" stop-opacity="0.8771"/>
<stop offset="0.8595" stop-color="#151616" stop-opacity="0.9438"/>
<stop offset="1"/>
</linearGradient>
</defs>
</svg>
