<svg width="64" height="64" viewBox="0 0 64 64" fill="none" xmlns="http://www.w3.org/2000/svg">
<path fill-rule="evenodd" clip-rule="evenodd" d="M26.6505 9.47059C26.6505 8.6584 27.2922 8 28.0838 8H38.6207C39.4123 8 40.0541 8.6584 40.0541 9.47059C40.0541 10.2828 39.4123 10.9412 38.6207 10.9412H34.7856V14.0056C38.6322 14.423 42.1784 15.8816 45.1479 18.1013C45.7878 18.5796 45.9285 19.4994 45.4624 20.1559C44.9963 20.8123 44.0997 20.9567 43.4599 20.4785C40.3844 18.1795 36.5986 16.8235 32.5 16.8235C22.2091 16.8235 13.8667 25.3828 13.8667 35.9412C13.8667 46.4996 22.2091 55.0588 32.5 55.0588C42.7909 55.0588 51.1333 46.4996 51.1333 35.9412C51.1333 32.2221 50.0997 28.7552 48.3117 25.8211C47.892 25.1325 48.0959 24.2252 48.7672 23.7946C49.4384 23.364 50.3227 23.5732 50.7424 24.2619C52.807 27.6498 54 31.6548 54 35.9412C54 48.1239 44.3741 58 32.5 58C20.6259 58 11 48.1239 11 35.9412C11 23.9578 20.3134 14.2062 31.9189 13.8903V10.9412H28.0838C27.2922 10.9412 26.6505 10.2828 26.6505 9.47059ZM33.3523 24.2162C34.1439 24.2162 34.7856 24.8746 34.7856 25.6868V38.2994C34.7856 38.6176 34.685 38.9272 34.4989 39.1818L29.2305 46.389C28.7555 47.0387 27.8571 47.1704 27.2238 46.6831C26.5905 46.1958 26.4622 45.274 26.9371 44.6243L31.9189 37.8092V25.6868C31.9189 24.8746 32.5606 24.2162 33.3523 24.2162Z" fill="url(#paint0_linear_3040_29757)"/>
<defs>
<linearGradient id="paint0_linear_3040_29757" x1="11" y1="8" x2="57.7259" y2="11.7656" gradientUnits="userSpaceOnUse">
<stop stop-color="#00939C"/>
<stop offset="1" stop-color="#65BFAD"/>
</linearGradient>
</defs>
</svg>
