<svg width="250" height="250" viewBox="0 0 250 250" fill="none" xmlns="http://www.w3.org/2000/svg">
<path d="M0 125C0 55.9644 55.9644 0 125 0V0C194.036 0 250 55.9644 250 125V125C250 194.036 194.036 250 125 250V250C55.9644 250 0 194.036 0 125V125Z" fill="#E8E8E8"/>
<path d="M74.3037 97.2544H110.517V100.137H77.6233V121.831H108.555V124.714H77.6233V148.532H110.894V151.414H74.3037V97.2544ZM113.761 97.2544H117.609L134.659 121.073L152.086 97.254L175.79 67L136.847 123.576L156.915 151.414H152.916L134.659 126.079L116.326 151.414H112.403L132.622 123.576L113.761 97.2544ZM158.348 100.137V97.254H199.616V100.137H180.604V151.414H177.284V100.137H158.348ZM29 97.254H33.1494L90.3669 183L66.722 151.414L32.4702 101.351L32.3195 151.415H29L29 97.254ZM199.282 147.661C198.603 147.661 198.095 147.136 198.095 146.455C198.095 145.775 198.603 145.249 199.282 145.249C199.968 145.249 200.468 145.775 200.468 146.455C200.468 147.135 199.968 147.661 199.282 147.661ZM202.543 144.488H204.32C204.344 145.451 205.046 146.099 206.08 146.099C207.234 146.099 207.888 145.403 207.888 144.099V135.841H209.697V144.107C209.697 146.455 208.34 147.808 206.096 147.808C203.988 147.808 202.543 146.496 202.543 144.488V144.488ZM212.062 144.383H213.855C214.008 145.492 215.09 146.196 216.648 146.196C218.102 146.196 219.167 145.443 219.167 144.407C219.167 143.517 218.489 142.982 216.947 142.618L215.445 142.254C213.338 141.759 212.377 140.739 212.377 139.023C212.377 136.943 214.073 135.558 216.616 135.558C218.981 135.558 220.709 136.942 220.814 138.91H219.054C218.885 137.833 217.948 137.161 216.591 137.161C215.163 137.161 214.21 137.849 214.21 138.901C214.21 139.735 214.823 140.213 216.341 140.569L217.625 140.885C220.015 141.444 221 142.415 221 144.172C221 146.407 219.272 147.808 216.511 147.808C213.927 147.808 212.191 146.471 212.062 144.383V144.383Z" fill="black"/>
</svg>
