<svg width="64" height="64" viewBox="0 0 64 64" fill="none" xmlns="http://www.w3.org/2000/svg">
<path d="M51.6069 36.0343H13.2954V33.8737C13.2954 32.4219 14.4722 31.2451 15.9238 31.2451H48.9784C50.4301 31.2451 51.6069 32.4219 51.6069 33.8737V36.0343Z" fill="#DFDEDF"/>
<path d="M48.938 61.0898H15.9644C14.4904 61.0898 13.2954 59.8949 13.2954 58.4208V36.0337H51.6069V58.4208C51.6069 59.8949 50.4121 61.0898 48.938 61.0898Z" fill="white"/>
<path d="M51.1312 35.5996V33.662C51.1312 32.5181 50.204 31.5908 49.0601 31.5908H15.9011C14.7573 31.5908 13.8301 32.5181 13.8301 33.662V35.5996H51.1312ZM51.1312 58.698V36.4685H13.8301V58.698C13.8301 59.8419 14.7573 60.769 15.9011 60.769H49.0601C50.204 60.769 51.1312 59.8419 51.1312 58.698ZM16.0956 30.722L16.2246 29.3136L15.6768 30.7333C15.7511 30.7277 15.8254 30.722 15.9011 30.722H16.0956ZM48.6383 28.3477L48.8296 30.722H49.0601C49.1835 30.722 49.3043 30.7321 49.4237 30.7469L48.6383 28.3477ZM51.2684 31.7276C51.7224 32.2451 52.0001 32.921 52.0001 33.662V58.698C52.0001 60.3192 50.6812 61.638 49.0601 61.638H15.9011C14.2801 61.638 12.9612 60.3192 12.9612 58.698V33.662C12.9612 32.8763 13.2727 32.1634 13.7766 31.6353L16.7075 24.0384L17.9856 10.0768L19.4276 10.2087L18.276 22.7884L18.6816 22.9449L18.1311 24.3719L17.5498 30.722H47.3769L45.7217 10.174L47.1649 10.0576L48.1412 22.1763L48.1418 22.1762L51.2684 31.7276ZM16.1875 33.007C16.5498 33.007 16.8435 33.3007 16.8435 33.6631C16.8435 34.0254 16.5498 34.3191 16.1875 34.3191C15.8251 34.3191 15.5314 34.0254 15.5314 33.6631C15.5314 33.3007 15.8251 33.007 16.1875 33.007ZM18.4304 33.007C18.7927 33.007 19.0864 33.3007 19.0864 33.6631C19.0864 34.0254 18.7927 34.3191 18.4304 34.3191C18.068 34.3191 17.7743 34.0254 17.7743 33.6631C17.7743 33.3007 18.068 33.007 18.4304 33.007ZM20.6026 33.007C20.9649 33.007 21.2586 33.3007 21.2586 33.6631C21.2586 34.0254 20.9649 34.3191 20.6026 34.3191C20.2403 34.3191 19.9466 34.0254 19.9466 33.6631C19.9466 33.3007 20.2403 33.007 20.6026 33.007Z" fill="black"/>
<path d="M18.4543 47.2428C18.567 47.1124 18.6263 46.941 18.6263 46.7283C18.6263 46.5154 18.567 46.3509 18.4543 46.2205C18.3357 46.0901 18.1695 46.0283 17.956 46.0283H16.9118V47.4348H17.956C18.1695 47.4348 18.3357 47.373 18.4543 47.2428ZM17.956 45.1846C18.4068 45.1846 18.7628 45.3218 19.0297 45.603C19.2967 45.8842 19.4273 46.2615 19.4273 46.7283C19.4273 47.2015 19.2967 47.572 19.0358 47.8532C18.7688 48.1348 18.4129 48.2787 17.956 48.2787H16.9118V50.1718H16.105V45.1846H17.956ZM22.3089 48.2431V46.7883H23.1778V50.0731H22.3089V49.7769C22.0455 50.0401 21.7033 50.1717 21.2754 50.1717C20.8804 50.1717 20.5645 50.0401 20.3209 49.7835C20.0774 49.5268 19.9589 49.1976 19.9589 48.7895V46.7883H20.8278V48.6051C20.8278 48.8355 20.887 49.0265 21.0121 49.1648C21.1305 49.3029 21.2885 49.3754 21.4926 49.3754C22.039 49.3754 22.3089 49.0001 22.3089 48.2431ZM26.5675 49.145C26.7386 48.9672 26.8242 48.7302 26.8242 48.434C26.8242 48.1379 26.7386 47.8942 26.5675 47.7165C26.3897 47.5387 26.1725 47.4466 25.9026 47.4466C25.6591 47.4466 25.4419 47.5387 25.251 47.7231C25.0601 47.9075 24.968 48.1443 24.968 48.434C24.968 48.7236 25.0601 48.9608 25.251 49.1383C25.4419 49.3228 25.6591 49.4149 25.9026 49.4149C26.1725 49.4149 26.3897 49.3228 26.5675 49.145ZM26.0541 46.6896C26.482 46.6896 26.8637 46.8543 27.1863 47.1834C27.5089 47.5191 27.6667 47.9337 27.6667 48.434C27.6667 48.9342 27.5089 49.349 27.1863 49.6781C26.8637 50.0073 26.4885 50.1717 26.0541 50.1717C25.6261 50.1717 25.2641 50.0532 24.968 49.8164V51.6401H24.0991V46.7883H24.968V47.0517C25.2576 46.8081 25.6196 46.6896 26.0541 46.6896ZM30.7932 49.145C30.9643 48.9672 31.0499 48.7302 31.0499 48.434C31.0499 48.1379 30.9643 47.8942 30.7932 47.7165C30.6154 47.5387 30.3983 47.4466 30.1284 47.4466C29.8848 47.4466 29.6677 47.5387 29.4767 47.7231C29.2858 47.9075 29.1936 48.1443 29.1936 48.434C29.1936 48.7236 29.2858 48.9608 29.4767 49.1383C29.6677 49.3228 29.8848 49.4149 30.1284 49.4149C30.3983 49.4149 30.6154 49.3228 30.7932 49.145ZM30.2796 46.6896C30.7075 46.6896 31.0894 46.8543 31.4121 47.1834C31.7344 47.5191 31.8924 47.9337 31.8924 48.434C31.8924 48.9342 31.7344 49.349 31.4121 49.6781C31.0894 50.0073 30.7142 50.1717 30.2796 50.1717C29.8519 50.1717 29.4899 50.0532 29.1936 49.8164V51.6401H28.3248V46.7883H29.1936V47.0517C29.4833 46.8081 29.8453 46.6896 30.2796 46.6896ZM33.1758 48.0522H34.7622C34.7096 47.8482 34.6107 47.6969 34.4726 47.5979C34.3343 47.4992 34.1699 47.4466 33.9854 47.4466C33.8079 47.4466 33.6366 47.4992 33.4852 47.6046C33.3272 47.71 33.2218 47.8613 33.1758 48.0522ZM33.9854 46.6896C34.4331 46.6896 34.8215 46.8476 35.144 47.157C35.4666 47.473 35.6311 47.8744 35.6509 48.3682V48.6645H33.1495C33.1956 48.8947 33.2942 49.0789 33.4458 49.2174C33.5971 49.3556 33.7682 49.4279 33.9722 49.4279C34.3475 49.4279 34.6175 49.2831 34.7886 48.9935L35.5654 49.1581C35.4271 49.4939 35.2165 49.7441 34.94 49.9152C34.6635 50.0863 34.341 50.1717 33.9722 50.1717C33.4983 50.1717 33.0968 50.0073 32.7742 49.6848C32.4517 49.3623 32.287 48.9409 32.287 48.434C32.287 47.9273 32.4517 47.506 32.7808 47.1767C33.1033 46.8543 33.505 46.6896 33.9854 46.6896ZM38.0467 49.3623C38.2112 49.3623 38.3956 49.3095 38.5931 49.2043L38.8432 49.9283C38.5403 50.0929 38.2573 50.1719 37.9874 50.1719C37.5858 50.1719 37.2699 50.0599 37.0395 49.8426C36.8092 49.6256 36.6973 49.3029 36.6973 48.8619V47.4992H35.9929V46.7883H36.6973V45.7945H37.5662V46.7883H38.6391V47.4992H37.5662V48.796C37.5662 49.1713 37.7242 49.3623 38.0467 49.3623ZM39.8697 48.0522H41.4561C41.4035 47.8482 41.3047 47.6969 41.1665 47.5979C41.0282 47.4992 40.8638 47.4466 40.6793 47.4466C40.5018 47.4466 40.3306 47.4992 40.1791 47.6046C40.0211 47.71 39.9158 47.8613 39.8697 48.0522ZM40.6793 46.6896C41.127 46.6896 41.5155 46.8476 41.838 47.157C42.1605 47.473 42.3251 47.8744 42.3449 48.3682V48.6645H39.8435C39.8895 48.8947 39.9882 49.0789 40.1398 49.2174C40.2911 49.3556 40.4622 49.4279 40.6662 49.4279C41.0415 49.4279 41.3114 49.2831 41.4825 48.9935L42.2592 49.1581C42.121 49.4939 41.9104 49.7441 41.6339 49.9152C41.3575 50.0863 41.0349 50.1717 40.6662 50.1717C40.1922 50.1717 39.7907 50.0073 39.4682 49.6848C39.1457 49.3623 38.981 48.9409 38.981 48.434C38.981 47.9273 39.1457 47.506 39.4748 47.1767C39.7973 46.8543 40.199 46.6896 40.6793 46.6896ZM43.7729 48.0522H45.3593C45.3067 47.8482 45.2079 47.6969 45.0697 47.5979C44.9314 47.4992 44.767 47.4466 44.5825 47.4466C44.405 47.4466 44.2337 47.4992 44.0823 47.6046C43.9243 47.71 43.8189 47.8613 43.7729 48.0522ZM44.5825 46.6896C45.0302 46.6896 45.4186 46.8476 45.7411 47.157C46.0637 47.473 46.2282 47.8744 46.248 48.3682V48.6645H43.7466C43.7927 48.8947 43.8914 49.0789 44.0429 49.2174C44.1942 49.3556 44.3653 49.4279 44.5694 49.4279C44.9447 49.4279 45.2146 49.2831 45.3857 48.9935L46.1625 49.1581C46.0242 49.4939 45.8136 49.7441 45.5371 49.9152C45.2606 50.0863 44.9381 50.1717 44.5694 50.1717C44.0954 50.1717 43.6939 50.0073 43.3714 49.6848C43.0488 49.3623 42.8841 48.9409 42.8841 48.434C42.8841 47.9273 43.0488 47.506 43.3779 47.1767C43.7004 46.8543 44.1021 46.6896 44.5825 46.6896ZM48.9532 46.7423C49.052 46.7423 49.131 46.7488 49.1838 46.7685L49.1376 47.6046H48.9468C48.1634 47.6046 47.7749 48.072 47.7749 49.0134V50.0731H46.9061V46.7883H47.7749V47.3873C48.0712 46.9594 48.4661 46.7423 48.9532 46.7423Z" fill="black"/>
<path d="M45.1523 23.5892L49.8402 21.326V19.0629L39.0095 13.89L49.8402 8.31306V6.13084L45.314 4.0293L32.4897 10.4144L19.4498 4.0293L15.2468 6.29249V8.23223L25.4308 13.8092L15.2468 18.9821V21.326L19.6114 23.5892L32.5435 16.9614L45.1523 23.5892Z" fill="#00D8A2"/>
<path d="M45.7402 22.6659V21.6912L49.2689 19.8626V20.9575L45.7402 22.6659ZM15.5309 19.837L18.9407 21.7944V22.5737L15.5309 20.8486V19.837ZM32.9967 15.7205L44.7265 21.5161V22.6815L32.9967 16.6724V15.7205ZM19.9543 21.6857L31.983 15.7217V16.6721L19.9543 22.7579V21.6857ZM28.4715 11.9404L16.299 6.06354L19.4517 4.46127L32.4898 11.2203L45.3097 4.46417L48.5737 6.13598L36.7032 12.1098C36.2287 12.3487 36.2294 13.0265 36.7045 13.2642L48.4524 19.144L45.4074 20.7219L32.4898 14.1031L19.3437 20.857L16.3412 19.1333L28.4782 13.1003C28.9591 12.8613 28.9551 12.1739 28.4715 11.9404ZM15.6825 8.05468V6.98507L27.0352 12.6491L25.8875 13.1076L15.6825 8.05468ZM38.9616 13.1706C38.946 13.1612 37.8743 12.6555 37.8743 12.6555L49.2689 6.92087V7.99521L38.9616 13.1706ZM40.1021 13.7323L50.1172 8.70355C50.2186 8.65262 50.2827 8.54877 50.2827 8.43531V6.05592C50.2827 5.94322 50.2196 5.84014 50.1194 5.78874L45.448 3.39609C45.3624 3.35232 45.261 3.35217 45.1753 3.39563L32.6244 9.76446C32.5398 9.80747 32.4398 9.80792 32.3547 9.76538L19.5827 3.3938C19.4978 3.3514 19.3976 3.35186 19.3128 3.39487L14.6813 5.74849C14.5805 5.79972 14.5171 5.90312 14.5171 6.01612V8.43394C14.5171 8.54816 14.5819 8.65246 14.6844 8.70309L24.7416 13.672L14.7309 18.6426C14.6307 18.6925 14.5663 18.7939 14.5644 18.906L14.5206 21.2835C14.5185 21.3987 14.5825 21.5048 14.6851 21.5568L19.4944 23.99C19.5793 24.0329 19.6795 24.033 19.7646 23.9903L32.3544 17.6686C32.4395 17.6258 32.54 17.6261 32.6251 17.6692L45.0579 23.9908C45.1415 24.0332 45.2401 24.0343 45.3246 23.9934L50.1133 21.675C50.2168 21.6248 50.2827 21.5199 50.2827 21.4049V18.9208C50.2827 18.8062 50.2176 18.7018 50.1148 18.6513L40.1021 13.7323Z" fill="black"/>
</svg>
