<svg width="250" height="250" viewBox="0 0 250 250" fill="none" xmlns="http://www.w3.org/2000/svg">
<path d="M124.186 12C66.8129 12 70.3952 37.0104 70.3952 37.0104L70.4589 62.922H125.209V70.7013H48.713C48.713 70.7013 12 66.5159 12 124.707C12 182.901 44.044 180.837 44.044 180.837H63.1678V153.833C63.1678 153.833 62.1368 121.622 94.7003 121.622H149.003C149.003 121.622 179.511 122.117 179.511 91.9818V42.1548C179.511 42.1548 184.145 12 124.186 12ZM93.9968 29.425C95.2906 29.4238 96.5719 29.6791 97.7674 30.1763C98.9629 30.6734 100.049 31.4027 100.964 32.3223C101.879 33.242 102.604 34.3339 103.099 35.5357C103.593 36.7374 103.847 38.0254 103.846 39.326C103.847 40.6265 103.593 41.9145 103.099 43.1163C102.604 44.3181 101.879 45.41 100.964 46.3296C100.049 47.2493 98.9629 47.9785 97.7674 48.4757C96.5719 48.9728 95.2906 49.2281 93.9968 49.227C92.703 49.2281 91.4217 48.9728 90.2262 48.4757C89.0307 47.9785 87.9444 47.2493 87.0296 46.3296C86.1147 45.41 85.3893 44.3181 84.8947 43.1163C84.4001 41.9145 84.1461 40.6265 84.1473 39.326C84.1461 38.0254 84.4001 36.7374 84.8947 35.5357C85.3893 34.3339 86.1147 33.242 87.0296 32.3223C87.9444 31.4027 89.0307 30.6734 90.2262 30.1763C91.4217 29.6791 92.703 29.4238 93.9968 29.425V29.425Z" fill="url(#paint0_linear_2685_32299)"/>
<path d="M125.813 238C183.187 238 179.604 212.99 179.604 212.99L179.541 187.079H124.79V179.3H201.286C201.286 179.3 237.999 183.485 237.999 125.292C237.999 67.0995 205.955 69.1634 205.955 69.1634H186.831V96.1664C186.831 96.1664 187.862 128.378 155.298 128.378H100.996C100.996 128.378 70.4873 127.882 70.4873 158.019V207.846C70.4873 207.846 65.8546 238 125.813 238H125.813ZM156.003 220.577C154.709 220.578 153.428 220.323 152.232 219.826C151.037 219.329 149.95 218.599 149.035 217.68C148.121 216.76 147.395 215.668 146.901 214.466C146.406 213.265 146.152 211.977 146.153 210.676C146.152 209.376 146.406 208.087 146.9 206.886C147.395 205.684 148.12 204.592 149.035 203.672C149.95 202.752 151.036 202.023 152.232 201.526C153.427 201.028 154.709 200.773 156.003 200.774C157.296 200.773 158.578 201.028 159.773 201.526C160.969 202.023 162.055 202.752 162.97 203.672C163.885 204.591 164.61 205.683 165.105 206.885C165.599 208.087 165.853 209.375 165.852 210.675C165.853 211.976 165.599 213.264 165.105 214.466C164.61 215.667 163.885 216.759 162.97 217.679C162.055 218.599 160.969 219.328 159.773 219.825C158.578 220.322 157.296 220.577 156.003 220.576V220.577Z" fill="url(#paint1_linear_2685_32299)"/>
<defs>
<linearGradient id="paint0_linear_2685_32299" x1="33.7185" y1="32.3274" x2="146.295" y2="143.202" gradientUnits="userSpaceOnUse">
<stop stop-color="#387EB8"/>
<stop offset="1" stop-color="#366994"/>
</linearGradient>
<linearGradient id="paint1_linear_2685_32299" x1="102.462" y1="103.901" x2="223.327" y2="217.565" gradientUnits="userSpaceOnUse">
<stop stop-color="#FFE052"/>
<stop offset="1" stop-color="#FFC331"/>
</linearGradient>
</defs>
</svg>
