<svg width="64" height="64" viewBox="0 0 64 64" fill="none" xmlns="http://www.w3.org/2000/svg">
<path d="M52.0073 11.4636C46.7622 3.96651 36.402 1.7443 28.9122 6.51075L15.7589 14.8845C14.874 15.4401 14.0485 16.086 13.2974 16.812C12.5455 17.538 11.8717 18.3403 11.2865 19.2056C10.7013 20.0709 10.2075 20.9947 9.81264 21.9617C9.41875 22.9292 9.12632 23.9349 8.94002 24.9626C8.78453 25.8242 8.69972 26.698 8.68841 27.5737C8.67616 28.4504 8.73742 29.3261 8.87029 30.1914C9.00316 31.0577 9.20765 31.9118 9.48093 32.7441C9.75421 33.5765 10.0963 34.3844 10.5034 35.1603C10.2233 35.5856 9.9648 36.0246 9.72877 36.4758C9.49224 36.9268 9.27927 37.3901 9.08985 37.8628C8.90044 38.3355 8.73553 38.8176 8.59512 39.3072C8.45471 39.7968 8.33974 40.2931 8.24928 40.794C7.87338 42.9005 7.92304 45.0609 8.39534 47.148C8.63093 48.1885 8.96923 49.2036 9.40648 50.1772C9.84373 51.1508 10.3762 52.0793 10.9981 52.9474C16.2432 60.4446 26.6025 62.6668 34.0923 57.9003L47.2456 49.5614C48.1305 49.0049 48.9541 48.358 49.7051 47.6311C50.4561 46.9047 51.1297 46.1026 51.7152 45.2375C52.3004 44.3731 52.7942 43.4494 53.189 42.4823C53.5839 41.5162 53.8769 40.5106 54.0645 39.4833C54.2199 38.6217 54.3038 37.7488 54.3151 36.8731C54.3264 35.9974 54.2652 35.1217 54.1314 34.2564C53.9985 33.391 53.794 32.5379 53.5198 31.7055C53.2456 30.8741 52.9035 30.0662 52.4964 29.2903C52.7763 28.8656 53.0354 28.4259 53.2719 27.9749C53.5075 27.5238 53.7214 27.0606 53.9109 26.5879C54.1003 26.1152 54.2661 25.6331 54.4075 25.1434C54.5479 24.6547 54.6647 24.1585 54.7561 23.6576C54.9427 22.6067 55.0238 21.5399 54.9993 20.473C54.9748 19.4062 54.8438 18.345 54.6082 17.3035C54.3726 16.2631 54.0343 15.248 53.5971 14.2744C53.1604 13.3006 52.6278 12.3726 52.0073 11.5041" fill="#FF3E00"/>
<path d="M27.6268 53.6724C26.5973 53.9397 25.5331 54.0483 24.4708 53.9945C23.4088 53.9399 22.3609 53.7252 21.3639 53.3551C20.3669 52.9856 19.432 52.4665 18.5915 51.8156C17.7517 51.1642 17.0161 50.3888 16.41 49.5161C16.0358 48.9936 15.7155 48.4361 15.4535 47.8504C15.1907 47.2651 14.9871 46.6551 14.8457 46.0293C14.7053 45.4032 14.6261 44.7648 14.612 44.1235C14.5978 43.4823 14.6478 42.841 14.7608 42.2092C14.7788 42.1066 14.7995 42.0039 14.8221 41.9023C14.8438 41.7996 14.8683 41.6979 14.8947 41.5972C14.9201 41.4955 14.9484 41.3947 14.9785 41.294C15.0077 41.1942 15.0398 41.0943 15.0728 40.9955L15.3206 40.2394L15.9963 40.7431C16.3836 41.0256 16.7831 41.2921 17.1931 41.5407C17.603 41.7902 18.0233 42.0218 18.453 42.2346C18.8817 42.4484 19.3209 42.6442 19.7666 42.8203C20.2123 42.9973 20.6656 43.1546 21.1255 43.293L21.6296 43.439L21.5844 43.9427C21.5601 44.2856 21.5958 44.63 21.6899 44.9606C21.7361 45.1263 21.7974 45.2864 21.8718 45.4408C21.9463 45.5953 22.0339 45.7431 22.1338 45.8825C22.3168 46.1453 22.5389 46.3787 22.7925 46.5745C23.045 46.7704 23.3268 46.9267 23.6274 47.0378C23.928 47.1489 24.2428 47.213 24.5632 47.229C24.8826 47.2459 25.203 47.213 25.5131 47.132C25.5847 47.1131 25.6544 47.0915 25.7241 47.067C25.7939 47.0425 25.8627 47.0162 25.9296 46.986C25.9974 46.9568 26.0634 46.9248 26.1294 46.89C26.1944 46.8561 26.2575 46.8194 26.3197 46.7798L39.4532 38.4051C39.6142 38.3042 39.7643 38.1868 39.9009 38.0548C40.0375 37.922 40.1591 37.7761 40.2656 37.6188C40.372 37.4616 40.4606 37.293 40.5322 37.117C40.6029 36.9409 40.6557 36.7582 40.6896 36.5718C40.7226 36.3806 40.7367 36.1876 40.732 35.9936C40.7273 35.8006 40.7028 35.6085 40.6595 35.4192C40.617 35.2309 40.5549 35.0473 40.4748 34.8703C40.3956 34.6942 40.2976 34.5266 40.1845 34.3693C40.0017 34.1066 39.7802 33.874 39.5267 33.6782C39.2733 33.4823 38.9915 33.326 38.6918 33.2149C38.3915 33.1038 38.0759 33.039 37.7561 33.0228C37.4357 33.0068 37.1153 33.0398 36.8052 33.1198C36.7346 33.1386 36.6639 33.1603 36.5942 33.1848C36.5244 33.2093 36.4566 33.2356 36.3887 33.2648C36.3209 33.295 36.2549 33.327 36.1899 33.3618C36.1249 33.3957 36.0608 33.4334 35.9986 33.4729L30.9551 36.6725C30.7497 36.8025 30.5386 36.9249 30.3238 37.0398C30.108 37.1537 29.8893 37.2601 29.666 37.358C29.4427 37.4559 29.2156 37.5454 28.9856 37.6254C28.7557 37.7064 28.5229 37.778 28.2873 37.8411C27.2592 38.1066 26.1972 38.2139 25.1371 38.1593C24.0769 38.1047 23.0319 37.8891 22.0367 37.5209C21.0416 37.1518 20.1087 36.633 19.27 35.9833C18.4313 35.3335 17.6963 34.5605 17.0903 33.6895C16.7181 33.1669 16.3987 32.6085 16.1376 32.0228C15.8756 31.4371 15.673 30.827 15.5326 30.2017C15.3922 29.5756 15.315 28.9372 15.3018 28.2959C15.2876 27.6556 15.3376 27.0144 15.4516 26.3835C15.6744 25.1414 16.1539 23.9593 16.8595 22.9127C17.5655 21.8661 18.4825 20.9784 19.5518 20.3063L32.7258 11.9325C32.9303 11.8026 33.1395 11.6802 33.3534 11.5653C33.5673 11.4514 33.786 11.345 34.0074 11.247C34.2293 11.1491 34.4551 11.0599 34.684 10.9796C34.9121 10.8986 35.1439 10.8261 35.3785 10.7631C36.4076 10.4966 37.4715 10.3874 38.5326 10.441C39.5946 10.4956 40.6415 10.7103 41.6386 11.0804C42.6356 11.4495 43.5694 11.9693 44.41 12.6199C45.2495 13.2716 45.9848 14.0473 46.5906 14.9203C46.9638 15.4419 47.2851 15.9994 47.548 16.5851C47.8109 17.1707 48.0145 17.78 48.1568 18.4061C48.2981 19.0323 48.3773 19.6707 48.3914 20.312C48.4065 20.9532 48.3575 21.5944 48.2444 22.2263C48.2246 22.3298 48.2039 22.4334 48.1803 22.5361C48.1577 22.6387 48.1332 22.7413 48.1068 22.843C48.0814 22.9457 48.0531 23.0474 48.0239 23.1481C47.9947 23.2498 47.9646 23.3506 47.9316 23.4504L47.68 24.2065L47.009 23.7027C46.6208 23.4174 46.2203 23.15 45.8094 22.8986C45.3985 22.6481 44.9764 22.4146 44.5457 22.199C43.6835 21.7692 42.7867 21.4126 41.8647 21.1331L41.3596 20.9871L41.4058 20.4833C41.4199 20.311 41.419 20.1378 41.403 19.9664C41.3879 19.795 41.3568 19.6246 41.3116 19.4579C41.2654 19.2922 41.206 19.1293 41.1316 18.9739C41.0581 18.8176 40.9704 18.6689 40.8705 18.5276C40.6867 18.2695 40.4646 18.0409 40.2118 17.8496C39.9595 17.6575 39.6792 17.5051 39.3807 17.3977C38.7809 17.1802 38.1289 17.151 37.512 17.3139C37.4404 17.3327 37.3697 17.3544 37.3009 17.3779C37.2312 17.4024 37.1624 17.4297 37.0945 17.4589C37.0276 17.4881 36.9607 17.521 36.8957 17.5549C36.8307 17.5898 36.7666 17.6265 36.7044 17.666L23.5464 26.0257C23.3862 26.1264 23.2363 26.2441 23.1006 26.376C22.9649 26.5078 22.8424 26.6537 22.736 26.8101C22.6304 26.9673 22.541 27.1348 22.4693 27.31C22.3977 27.4861 22.3449 27.6679 22.311 27.8543C22.278 28.0455 22.2638 28.2394 22.2686 28.4334C22.2799 28.8217 22.3673 29.204 22.5258 29.5586C22.6058 29.7352 22.7026 29.9036 22.8151 30.0614C22.997 30.3213 23.2175 30.553 23.4691 30.7469C23.7202 30.9418 23.9995 31.0974 24.2974 31.2083C24.8965 31.4309 25.5491 31.4667 26.1689 31.311C26.2396 31.2912 26.3103 31.2695 26.38 31.2451C26.4488 31.2206 26.5176 31.1933 26.5855 31.1641C26.653 31.1347 26.7193 31.1027 26.7843 31.068C26.8493 31.0341 26.9134 30.9974 26.9756 30.9579L32.019 27.7639C32.2254 27.6321 32.4356 27.5078 32.6514 27.3929C32.8662 27.2771 33.0858 27.1707 33.3101 27.0718C33.5336 26.9738 33.7609 26.8846 33.9914 26.8044C34.2223 26.7234 34.456 26.6519 34.6925 26.5897C35.7215 26.3223 36.7845 26.2131 37.8465 26.2658C38.9086 26.3195 39.9555 26.5342 40.9525 26.9033C41.9486 27.2724 42.8834 27.7912 43.723 28.4428C44.5636 29.0935 45.2986 29.8684 45.9046 30.7413C46.2777 31.2639 46.5981 31.8213 46.8611 32.407C47.124 32.9923 47.3279 33.6024 47.4698 34.2281C47.6112 34.8533 47.6903 35.4917 47.7054 36.133C47.7205 36.7752 47.6705 37.4164 47.5584 38.0473C47.4473 38.6667 47.272 39.2729 47.0354 39.8561C46.799 40.4395 46.5021 40.9965 46.1496 41.5181C45.7981 42.0397 45.3929 42.5237 44.9405 42.9616C44.4882 43.3994 43.9916 43.7892 43.4582 44.1245L30.2993 52.4982C30.0929 52.6291 29.8818 52.7525 29.6669 52.8674C29.4511 52.9822 29.2316 53.0886 29.0073 53.1866C28.784 53.2854 28.5569 53.3749 28.326 53.4559C28.096 53.5368 27.8623 53.6093 27.6268 53.6724" fill="white"/>
</svg>
