<svg width="64" height="64" viewBox="0 0 64 64" fill="none" xmlns="http://www.w3.org/2000/svg">
<path d="M36.3172 11.9854V21.1023L52.1057 30.2193V21.1023L36.3172 11.9854ZM4.74243 21.1023V30.2193L12.6367 34.7777V25.6608L4.74243 21.1023ZM28.4229 25.6608L20.5286 30.2193V57.5701L28.4229 62.1309V43.897L36.3172 48.4555V39.3386L28.4229 34.7801V25.6608Z" fill="#E55B2D"/>
<path d="M36.3174 11.9854L12.637 25.6608V34.7777L28.4255 25.6608V34.7777L36.3198 30.2193V11.9854H36.3174ZM59.9979 16.5438L52.1036 21.1023V30.2193L59.9979 25.6608V16.5438ZM44.2117 34.7801L36.3174 39.3386V48.4555L44.2117 43.897V34.7801ZM36.3174 48.4555L28.4231 43.897V62.1309L36.3174 57.5725V48.4555Z" fill="#ED8E24"/>
<path d="M36.3172 2.86865L4.74243 21.1025L12.6367 25.661L36.3172 11.9856L52.1057 21.1025L60 16.5441L36.3172 2.86865ZM36.3172 30.2195L28.4229 34.778L36.3172 39.3364L44.2114 34.778L36.3172 30.2195Z" fill="#F8BF3C"/>
</svg>
